%TF.GenerationSoftware,KiCad,Pcbnew,10.0.6*%
%TF.CreationDate,2026-09-14T13:48:18+02:00*%
%TF.ProjectId,top board,746f7020-626f-4617-9264-2e6b69636164,001*%
%TF.SameCoordinates,Original*%
%TF.FileFunction,Copper,L1,Top*%
%TF.FilePolarity,Positive*%
%FSLAX46Y46*%
G04 Gerber Fmt 4.6, Leading zero omitted, Abs format (unit mm)*
G04 Created by KiCad (PCBNEW 10.0.6) date 2026-09-14 13:48:18*
%MOMM*%
%LPD*%
G01*
G04 APERTURE LIST*
%TA.AperFunction,ComponentPad*%
%ADD10R,1.700000X1.700000*%
%TD*%
%TA.AperFunction,ComponentPad*%
%ADD11C,1.700000*%
%TD*%
%TA.AperFunction,ComponentPad*%
%ADD12C,2.400000*%
%TD*%
%TA.AperFunction,ComponentPad*%
%ADD13C,6.400000*%
%TD*%
%TA.AperFunction,ViaPad*%
%ADD14C,0.800000*%
%TD*%
%TA.AperFunction,Conductor*%
%ADD15C,0.508000*%
%TD*%
%TA.AperFunction,Conductor*%
%ADD16C,0.381000*%
%TD*%
G04 APERTURE END LIST*
D10*
%TO.P,J2,1,Pin_1_1*%
%TO.N,/COM*%
X11650000Y30225000D03*
D11*
%TO.P,J2,2,Pin_2_2*%
%TO.N,/POS_0*%
X11650000Y32765000D03*
%TO.P,J2,3,Pin_3_3*%
%TO.N,/POS_1*%
X14190000Y30225000D03*
%TO.P,J2,4,Pin_4_4*%
%TO.N,/POS_2*%
X14190000Y32765000D03*
%TO.P,J2,5,Pin_5_5*%
%TO.N,/POS_3*%
X16730000Y30225000D03*
%TO.P,J2,6,Pin_6_6*%
%TO.N,/POS_4*%
X16730000Y32765000D03*
%TO.P,J2,7,Pin_7_7*%
%TO.N,/POS_5*%
X19270000Y30225000D03*
%TO.P,J2,8,Pin_8_8*%
%TO.N,/POS_6*%
X19270000Y32765000D03*
%TO.P,J2,9,Pin_9_9*%
%TO.N,/POS_7*%
X21810000Y30225000D03*
%TO.P,J2,10,Pin_10_10*%
%TO.N,/POS_8*%
X21810000Y32765000D03*
%TO.P,J2,11,Pin_11_11*%
%TO.N,/POS_9*%
X24350000Y30225000D03*
%TO.P,J2,12,Pin_12_12*%
%TO.N,GNDD*%
X24350000Y32765000D03*
%TD*%
D12*
%TO.P,S1,1,1_1*%
%TO.N,unconnected-(S1-Pad1)*%
X5340742Y17588190D03*
%TO.P,S1,2,2_2*%
%TO.N,/POS_0*%
X7928932Y22071068D03*
%TO.P,S1,3,3_3*%
%TO.N,/POS_1*%
X12411810Y24659258D03*
%TO.P,S1,4,4_4*%
%TO.N,/POS_2*%
X17588190Y24659258D03*
%TO.P,S1,5,5_5*%
%TO.N,/POS_3*%
X22071068Y22071068D03*
%TO.P,S1,6,6_6*%
%TO.N,/POS_4*%
X24659258Y17588190D03*
%TO.P,S1,7,7_7*%
%TO.N,/POS_5*%
X24659258Y12411810D03*
%TO.P,S1,8,8_8*%
%TO.N,/POS_6*%
X22071068Y7928932D03*
%TO.P,S1,9,9_9*%
%TO.N,/POS_7*%
X17588190Y5340742D03*
%TO.P,S1,10,10_10*%
%TO.N,/POS_8*%
X12411810Y5340742D03*
%TO.P,S1,11,11_11*%
%TO.N,/POS_9*%
X7928932Y7928932D03*
%TO.P,S1,12,12_12*%
%TO.N,/POS_HZ*%
X5340742Y12411810D03*
%TO.P,S1,A,A_A*%
%TO.N,unconnected-(S1-PadA)*%
X9500000Y15000000D03*
%TO.P,S1,B,B_B*%
%TO.N,unconnected-(S1-PadB)*%
X12250000Y19763140D03*
%TO.P,S1,C,C_C*%
%TO.N,unconnected-(S1-PadC)*%
X17750000Y19763140D03*
%TO.P,S1,D,D_D*%
%TO.N,/IN*%
X20500000Y15000000D03*
%TO.P,S1,E,E_E*%
%TO.N,unconnected-(S1-PadE)*%
X17750000Y10236860D03*
%TO.P,S1,F,F_F*%
%TO.N,unconnected-(S1-PadF)*%
X12250000Y10236860D03*
%TD*%
D10*
%TO.P,J1,1,Pin_1_1*%
%TO.N,GNDD*%
X17555000Y-1000000D03*
D11*
%TO.P,J1,2,Pin_2_2*%
%TO.N,/IN*%
X15015000Y-1000000D03*
%TO.P,J1,3,Pin_3_3*%
%TO.N,/COM*%
X12475001Y-1000000D03*
%TD*%
D13*
%TO.P,H4,1,1_1*%
%TO.N,GNDD*%
X30000000Y0D03*
%TD*%
%TO.P,H3,1,1_1*%
%TO.N,GNDD*%
X0Y0D03*
%TD*%
%TO.P,H2,1,1_1*%
%TO.N,GNDD*%
X30000000Y30000000D03*
%TD*%
%TO.P,H1,1,1_1*%
%TO.N,GNDD*%
X0Y30000000D03*
%TD*%
D14*
%TO.N,/COM*%
X9398000Y30226000D03*
%TO.N,/POS_0*%
X13026000Y28716000D03*
%TO.N,/POS_1*%
X14296000Y27954000D03*
%TO.N,/POS_2*%
X15566000Y28716000D03*
%TO.N,/POS_3*%
X16836000Y27954000D03*
%TO.N,/POS_4*%
X18106000Y28716000D03*
%TO.N,/POS_5*%
X24710000Y15000000D03*
%TO.N,/POS_6*%
X26742000Y15000000D03*
%TO.N,/POS_7*%
X28012000Y15000000D03*
%TO.N,/POS_8*%
X29282000Y15000000D03*
%TO.N,/POS_9*%
X30552000Y15000000D03*
%TD*%
%TO.N,/COM*%
D15*
X9398000Y30226000D02*
X11649000Y30226000D01*
%TO.N,/POS_0*%
D16*
X13026000Y28716000D02*
X12949500Y28792500D01*
D15*
X12954000Y31461000D02*
X12954000Y30828635D01*
D16*
X12949500Y28792500D02*
X12949500Y30828635D01*
D15*
X11650000Y32765000D02*
X12954000Y31461000D01*
%TO.N,/POS_1*%
D16*
X14248000Y30167000D02*
X14190000Y30225000D01*
D15*
X14296000Y30119000D02*
X14190000Y30225000D01*
X14296000Y27954000D02*
X14296000Y30119000D01*
%TO.N,/POS_2*%
X14190000Y32765000D02*
X15460000Y31495000D01*
D16*
X15460000Y30799135D02*
X15460000Y29740668D01*
D15*
X15460000Y31495000D02*
X15460000Y30799135D01*
X15460000Y29740668D02*
X15460000Y28822000D01*
X15460000Y28822000D02*
X15566000Y28716000D01*
%TO.N,/POS_3*%
X16836000Y30119000D02*
X16730000Y30225000D01*
X16836000Y27954000D02*
X16836000Y30119000D01*
%TO.N,/POS_4*%
X18034000Y31461000D02*
X18034000Y30765135D01*
X16730000Y32765000D02*
X18034000Y31461000D01*
D16*
X18029500Y30760635D02*
X18029500Y29732000D01*
X18034000Y30765135D02*
X18029500Y30760635D01*
D15*
X18029500Y28792500D02*
X18106000Y28716000D01*
X18029500Y29732000D02*
X18029500Y28792500D01*
%TO.N,/POS_5*%
X22424000Y18556000D02*
X22424000Y16524000D01*
X23948000Y15000000D02*
X24710000Y15000000D01*
X19270000Y30225000D02*
X19270000Y25520000D01*
X19884000Y21096000D02*
X22424000Y18556000D01*
X22424000Y16524000D02*
X23948000Y15000000D01*
X19270000Y25520000D02*
X19884000Y24906000D01*
X19884000Y24906000D02*
X19884000Y21096000D01*
%TO.N,/POS_6*%
X20569500Y26252500D02*
X26742000Y20080000D01*
X20569500Y29732000D02*
X20569500Y26252500D01*
X26742000Y20080000D02*
X26742000Y19826000D01*
D16*
X20569500Y30760635D02*
X20569500Y29732000D01*
D15*
X20574000Y31461000D02*
X20574000Y30765135D01*
D16*
X20574000Y30765135D02*
X20569500Y30760635D01*
D15*
X19270000Y32765000D02*
X20574000Y31461000D01*
X26742000Y19826000D02*
X26742000Y15000000D01*
%TO.N,/POS_7*%
X28012000Y20588000D02*
X28012000Y15000000D01*
X21810000Y30225000D02*
X21916000Y30119000D01*
X21916000Y30119000D02*
X21916000Y26684000D01*
X21916000Y26684000D02*
X28012000Y20588000D01*
%TO.N,/POS_8*%
X23114000Y31461000D02*
X23114000Y30765135D01*
X29282000Y21096000D02*
X29282000Y15000000D01*
D16*
X23109500Y30760635D02*
X23109500Y29732000D01*
D15*
X21810000Y32765000D02*
X23114000Y31461000D01*
X23109500Y29732000D02*
X23109500Y27268500D01*
D16*
X23114000Y30765135D02*
X23109500Y30760635D01*
D15*
X23109500Y27268500D02*
X29282000Y21096000D01*
%TO.N,/POS_9*%
X30552000Y21604000D02*
X30552000Y21350000D01*
X24350000Y30225000D02*
X24456000Y30119000D01*
X24456000Y27700000D02*
X30552000Y21604000D01*
X24456000Y30119000D02*
X24456000Y27700000D01*
X30552000Y21350000D02*
X30552000Y15000000D01*
%TD*%
%TA.AperFunction,Conductor*%
%TO.N,GNDD*%
G36*
X8274773Y34404815D02*
G01*
X8294181Y34389398D01*
X8344447Y34340518D01*
X8378786Y34279669D01*
X8382000Y34251620D01*
X8382000Y26466946D01*
X8362315Y26399907D01*
X8346185Y26379771D01*
X3374000Y21350000D01*
X3374000Y8904000D01*
X10703681Y1574319D01*
X10737166Y1512996D01*
X10740000Y1486638D01*
X10740000Y-2540000D01*
X11248000Y-3048000D01*
X15820000Y-3048000D01*
X16328000Y-2540000D01*
X16328000Y-2421628D01*
X16347685Y-2354589D01*
X16400489Y-2308834D01*
X16469647Y-2298890D01*
X16495333Y-2305446D01*
X16597620Y-2343596D01*
X16597627Y-2343598D01*
X16657155Y-2349999D01*
X16657172Y-2350000D01*
X17305000Y-2350000D01*
X17305000Y-1433012D01*
X17362007Y-1465925D01*
X17489174Y-1500000D01*
X17620826Y-1500000D01*
X17747993Y-1465925D01*
X17805000Y-1433012D01*
X17805000Y-2350000D01*
X18452828Y-2350000D01*
X18452844Y-2349999D01*
X18512372Y-2343598D01*
X18512379Y-2343596D01*
X18647086Y-2293354D01*
X18647093Y-2293350D01*
X18762187Y-2207190D01*
X18762190Y-2207187D01*
X18848350Y-2092093D01*
X18848354Y-2092086D01*
X18898596Y-1957379D01*
X18898598Y-1957372D01*
X18904999Y-1897844D01*
X18905000Y-1897827D01*
X18905000Y-1250000D01*
X17988012Y-1250000D01*
X18020925Y-1192993D01*
X18055000Y-1065826D01*
X18055000Y-934174D01*
X18020925Y-807007D01*
X17988012Y-750000D01*
X18905000Y-750000D01*
X18905000Y-102172D01*
X18904999Y-102155D01*
X18898598Y-42627D01*
X18898596Y-42620D01*
X18848354Y92087D01*
X18848350Y92094D01*
X18762190Y207188D01*
X18762187Y207191D01*
X18647093Y293351D01*
X18647086Y293355D01*
X18512379Y343597D01*
X18512374Y343599D01*
X18471396Y348005D01*
X18406846Y374745D01*
X18366999Y432138D01*
X18364508Y501964D01*
X18396972Y558973D01*
X18614000Y776000D01*
X31314000Y13476000D01*
X31314000Y14481942D01*
X31333685Y14548981D01*
X31334899Y14550834D01*
X31350013Y14573453D01*
X31417894Y14737334D01*
X31452500Y14911309D01*
X31452500Y15088691D01*
X31452500Y15088694D01*
X31452499Y15088696D01*
X31417896Y15262659D01*
X31417893Y15262668D01*
X31350016Y15426540D01*
X31350015Y15426541D01*
X31350013Y15426547D01*
X31350007Y15426556D01*
X31334897Y15449171D01*
X31314020Y15515848D01*
X31314000Y15518060D01*
X31314000Y21858000D01*
X31245139Y21926861D01*
X31223453Y21956106D01*
X31220631Y21961386D01*
X31220630Y21961389D01*
X31193230Y22002395D01*
X31138059Y22084966D01*
X31138057Y22084968D01*
X31138055Y22084971D01*
X31028647Y22194379D01*
X31028624Y22194400D01*
X25762319Y27460706D01*
X25728834Y27522029D01*
X25726000Y27548387D01*
X25726000Y31510000D01*
X25234863Y31510000D01*
X25167824Y31529685D01*
X25122069Y31582489D01*
X25111245Y31643728D01*
X25111717Y31649730D01*
X24479409Y32282038D01*
X24542993Y32299075D01*
X24657007Y32364901D01*
X24750099Y32457993D01*
X24815925Y32572007D01*
X24832962Y32635592D01*
X25465270Y32003283D01*
X25465270Y32003284D01*
X25504622Y32057446D01*
X25601095Y32246783D01*
X25666757Y32448870D01*
X25666757Y32448873D01*
X25700000Y32658754D01*
X25700000Y32871247D01*
X25666757Y33081128D01*
X25666757Y33081131D01*
X25601095Y33283218D01*
X25504624Y33472551D01*
X25465270Y33526718D01*
X25465269Y33526718D01*
X24832962Y32894410D01*
X24815925Y32957993D01*
X24750099Y33072007D01*
X24657007Y33165099D01*
X24542993Y33230925D01*
X24479407Y33247964D01*
X25111716Y33880272D01*
X25057550Y33919625D01*
X24868217Y34016096D01*
X24666129Y34081758D01*
X24456246Y34115000D01*
X24243753Y34115000D01*
X24091397Y34090870D01*
X24022104Y34099825D01*
X23968652Y34144821D01*
X23948013Y34211573D01*
X23948000Y34213343D01*
X23948000Y34300500D01*
X23967685Y34367539D01*
X24020489Y34413294D01*
X24072000Y34424500D01*
X29930122Y34424500D01*
X29997294Y34424500D01*
X30002702Y34424383D01*
X30380234Y34407899D01*
X30390971Y34406959D01*
X30762951Y34357987D01*
X30773570Y34356115D01*
X31139877Y34274907D01*
X31150289Y34272118D01*
X31508122Y34159293D01*
X31518257Y34155604D01*
X31864882Y34012027D01*
X31874673Y34007461D01*
X32207442Y33834232D01*
X32216810Y33828824D01*
X32533226Y33627245D01*
X32542087Y33621040D01*
X32839721Y33392658D01*
X32848008Y33385704D01*
X33124602Y33132252D01*
X33132251Y33124603D01*
X33385703Y32848009D01*
X33392657Y32839722D01*
X33621039Y32542088D01*
X33627244Y32533227D01*
X33828823Y32216811D01*
X33834231Y32207443D01*
X34007457Y31874681D01*
X34012029Y31864877D01*
X34155597Y31518273D01*
X34159297Y31508108D01*
X34272111Y31150309D01*
X34274910Y31139862D01*
X34349243Y30804565D01*
X34356111Y30773588D01*
X34357989Y30762935D01*
X34406956Y30390991D01*
X34407899Y30380215D01*
X34424382Y30002703D01*
X34424500Y29997294D01*
X34424500Y2707D01*
X34424382Y-2702D01*
X34407899Y-380214D01*
X34406956Y-390990D01*
X34357989Y-762934D01*
X34356111Y-773587D01*
X34274911Y-1139858D01*
X34272111Y-1150308D01*
X34159297Y-1508107D01*
X34155597Y-1518272D01*
X34012029Y-1864876D01*
X34007457Y-1874680D01*
X33834231Y-2207442D01*
X33828823Y-2216810D01*
X33627244Y-2533226D01*
X33621039Y-2542087D01*
X33392657Y-2839721D01*
X33385703Y-2848008D01*
X33132251Y-3124602D01*
X33124602Y-3132251D01*
X32848008Y-3385703D01*
X32839721Y-3392657D01*
X32542087Y-3621039D01*
X32533226Y-3627244D01*
X32216810Y-3828823D01*
X32207442Y-3834231D01*
X31874680Y-4007457D01*
X31864876Y-4012029D01*
X31518272Y-4155597D01*
X31508107Y-4159297D01*
X31150308Y-4272111D01*
X31139858Y-4274911D01*
X30773587Y-4356111D01*
X30762934Y-4357989D01*
X30390990Y-4406956D01*
X30380214Y-4407899D01*
X30002703Y-4424382D01*
X29997294Y-4424500D01*
X2706Y-4424500D01*
X-2703Y-4424382D01*
X-380215Y-4407899D01*
X-390991Y-4406956D01*
X-762935Y-4357989D01*
X-773588Y-4356111D01*
X-804565Y-4349243D01*
X-1139862Y-4274910D01*
X-1150305Y-4272112D01*
X-1508110Y-4159296D01*
X-1518273Y-4155597D01*
X-1864877Y-4012029D01*
X-1874681Y-4007457D01*
X-2207443Y-3834231D01*
X-2216811Y-3828823D01*
X-2533227Y-3627244D01*
X-2542088Y-3621039D01*
X-2839722Y-3392657D01*
X-2848009Y-3385703D01*
X-3124603Y-3132251D01*
X-3132252Y-3124602D01*
X-3385704Y-2848008D01*
X-3392658Y-2839721D01*
X-3621040Y-2542087D01*
X-3627245Y-2533226D01*
X-3828824Y-2216810D01*
X-3834232Y-2207442D01*
X-3964411Y-1957372D01*
X-4007461Y-1874673D01*
X-4012030Y-1864876D01*
X-4155604Y-1518257D01*
X-4159293Y-1508122D01*
X-4272118Y-1150289D01*
X-4274907Y-1139877D01*
X-4356115Y-773570D01*
X-4357987Y-762951D01*
X-4406959Y-390971D01*
X-4407899Y-380234D01*
X-4424382Y-2702D01*
X-4424500Y2707D01*
X-4424500Y29997294D01*
X-4424382Y30002703D01*
X-4421192Y30075766D01*
X-4407899Y30380237D01*
X-4406959Y30390970D01*
X-4357987Y30762956D01*
X-4356116Y30773567D01*
X-4274906Y31139884D01*
X-4272119Y31150284D01*
X-4159291Y31508130D01*
X-4155607Y31518251D01*
X-4012024Y31864892D01*
X-4007466Y31874666D01*
X-3834226Y32207454D01*
X-3828831Y32216800D01*
X-3627238Y32533238D01*
X-3621048Y32542078D01*
X-3392651Y32839731D01*
X-3385713Y32848000D01*
X-3132242Y33124614D01*
X-3124614Y33132242D01*
X-2848000Y33385713D01*
X-2839731Y33392651D01*
X-2542078Y33621048D01*
X-2533238Y33627238D01*
X-2216800Y33828831D01*
X-2207454Y33834226D01*
X-1874666Y34007466D01*
X-1864892Y34012024D01*
X-1518251Y34155607D01*
X-1508130Y34159291D01*
X-1150284Y34272119D01*
X-1139884Y34274906D01*
X-773567Y34356116D01*
X-762956Y34357987D01*
X-390970Y34406959D01*
X-380237Y34407899D01*
X-2703Y34424383D01*
X2706Y34424500D01*
X69878Y34424500D01*
X8207734Y34424500D01*
X8274773Y34404815D01*
G37*
%TD.AperFunction*%
%TD*%
M02*
