%TF.GenerationSoftware,KiCad,Pcbnew,10.0.6*%
%TF.CreationDate,2026-09-14T13:48:18+02:00*%
%TF.ProjectId,top board,746f7020-626f-4617-9264-2e6b69636164,001*%
%TF.SameCoordinates,Original*%
%TF.FileFunction,Legend,Top*%
%TF.FilePolarity,Positive*%
%FSLAX46Y46*%
G04 Gerber Fmt 4.6, Leading zero omitted, Abs format (unit mm)*
G04 Created by KiCad (PCBNEW 10.0.6) date 2026-09-14 13:48:18*
%MOMM*%
%LPD*%
G01*
G04 APERTURE LIST*
%ADD10C,0.150000*%
%ADD11C,0.120000*%
%ADD12R,1.700000X1.700000*%
%ADD13C,1.700000*%
%ADD14C,2.400000*%
%ADD15C,6.400000*%
G04 APERTURE END LIST*
D10*
X34454819Y7547620D02*
X33454819Y7547620D01*
X33454819Y7547620D02*
X33454819Y7928572D01*
X33454819Y7928572D02*
X33502438Y8023810D01*
X33502438Y8023810D02*
X33550057Y8071429D01*
X33550057Y8071429D02*
X33645295Y8119048D01*
X33645295Y8119048D02*
X33788152Y8119048D01*
X33788152Y8119048D02*
X33883390Y8071429D01*
X33883390Y8071429D02*
X33931009Y8023810D01*
X33931009Y8023810D02*
X33978628Y7928572D01*
X33978628Y7928572D02*
X33978628Y7547620D01*
X34359580Y9119048D02*
X34407200Y9071429D01*
X34407200Y9071429D02*
X34454819Y8928572D01*
X34454819Y8928572D02*
X34454819Y8833334D01*
X34454819Y8833334D02*
X34407200Y8690477D01*
X34407200Y8690477D02*
X34311961Y8595239D01*
X34311961Y8595239D02*
X34216723Y8547620D01*
X34216723Y8547620D02*
X34026247Y8500001D01*
X34026247Y8500001D02*
X33883390Y8500001D01*
X33883390Y8500001D02*
X33692914Y8547620D01*
X33692914Y8547620D02*
X33597676Y8595239D01*
X33597676Y8595239D02*
X33502438Y8690477D01*
X33502438Y8690477D02*
X33454819Y8833334D01*
X33454819Y8833334D02*
X33454819Y8928572D01*
X33454819Y8928572D02*
X33502438Y9071429D01*
X33502438Y9071429D02*
X33550057Y9119048D01*
X33931009Y9880953D02*
X33978628Y10023810D01*
X33978628Y10023810D02*
X34026247Y10071429D01*
X34026247Y10071429D02*
X34121485Y10119048D01*
X34121485Y10119048D02*
X34264342Y10119048D01*
X34264342Y10119048D02*
X34359580Y10071429D01*
X34359580Y10071429D02*
X34407200Y10023810D01*
X34407200Y10023810D02*
X34454819Y9928572D01*
X34454819Y9928572D02*
X34454819Y9547620D01*
X34454819Y9547620D02*
X33454819Y9547620D01*
X33454819Y9547620D02*
X33454819Y9880953D01*
X33454819Y9880953D02*
X33502438Y9976191D01*
X33502438Y9976191D02*
X33550057Y10023810D01*
X33550057Y10023810D02*
X33645295Y10071429D01*
X33645295Y10071429D02*
X33740533Y10071429D01*
X33740533Y10071429D02*
X33835771Y10023810D01*
X33835771Y10023810D02*
X33883390Y9976191D01*
X33883390Y9976191D02*
X33931009Y9880953D01*
X33931009Y9880953D02*
X33931009Y9547620D01*
X34073866Y10547620D02*
X34073866Y11309524D01*
X34454819Y11785715D02*
X33454819Y11785715D01*
X33454819Y11785715D02*
X33454819Y12023810D01*
X33454819Y12023810D02*
X33502438Y12166667D01*
X33502438Y12166667D02*
X33597676Y12261905D01*
X33597676Y12261905D02*
X33692914Y12309524D01*
X33692914Y12309524D02*
X33883390Y12357143D01*
X33883390Y12357143D02*
X34026247Y12357143D01*
X34026247Y12357143D02*
X34216723Y12309524D01*
X34216723Y12309524D02*
X34311961Y12261905D01*
X34311961Y12261905D02*
X34407200Y12166667D01*
X34407200Y12166667D02*
X34454819Y12023810D01*
X34454819Y12023810D02*
X34454819Y11785715D01*
X34454819Y13357143D02*
X33978628Y13023810D01*
X34454819Y12785715D02*
X33454819Y12785715D01*
X33454819Y12785715D02*
X33454819Y13166667D01*
X33454819Y13166667D02*
X33502438Y13261905D01*
X33502438Y13261905D02*
X33550057Y13309524D01*
X33550057Y13309524D02*
X33645295Y13357143D01*
X33645295Y13357143D02*
X33788152Y13357143D01*
X33788152Y13357143D02*
X33883390Y13309524D01*
X33883390Y13309524D02*
X33931009Y13261905D01*
X33931009Y13261905D02*
X33978628Y13166667D01*
X33978628Y13166667D02*
X33978628Y12785715D01*
X33931009Y14119048D02*
X33978628Y14261905D01*
X33978628Y14261905D02*
X34026247Y14309524D01*
X34026247Y14309524D02*
X34121485Y14357143D01*
X34121485Y14357143D02*
X34264342Y14357143D01*
X34264342Y14357143D02*
X34359580Y14309524D01*
X34359580Y14309524D02*
X34407200Y14261905D01*
X34407200Y14261905D02*
X34454819Y14166667D01*
X34454819Y14166667D02*
X34454819Y13785715D01*
X34454819Y13785715D02*
X33454819Y13785715D01*
X33454819Y13785715D02*
X33454819Y14119048D01*
X33454819Y14119048D02*
X33502438Y14214286D01*
X33502438Y14214286D02*
X33550057Y14261905D01*
X33550057Y14261905D02*
X33645295Y14309524D01*
X33645295Y14309524D02*
X33740533Y14309524D01*
X33740533Y14309524D02*
X33835771Y14261905D01*
X33835771Y14261905D02*
X33883390Y14214286D01*
X33883390Y14214286D02*
X33931009Y14119048D01*
X33931009Y14119048D02*
X33931009Y13785715D01*
X34073866Y14785715D02*
X34073866Y15547619D01*
X33454819Y15880953D02*
X33454819Y16452381D01*
X34454819Y16166667D02*
X33454819Y16166667D01*
X33454819Y16976191D02*
X33454819Y17166667D01*
X33454819Y17166667D02*
X33502438Y17261905D01*
X33502438Y17261905D02*
X33597676Y17357143D01*
X33597676Y17357143D02*
X33788152Y17404762D01*
X33788152Y17404762D02*
X34121485Y17404762D01*
X34121485Y17404762D02*
X34311961Y17357143D01*
X34311961Y17357143D02*
X34407200Y17261905D01*
X34407200Y17261905D02*
X34454819Y17166667D01*
X34454819Y17166667D02*
X34454819Y16976191D01*
X34454819Y16976191D02*
X34407200Y16880953D01*
X34407200Y16880953D02*
X34311961Y16785715D01*
X34311961Y16785715D02*
X34121485Y16738096D01*
X34121485Y16738096D02*
X33788152Y16738096D01*
X33788152Y16738096D02*
X33597676Y16785715D01*
X33597676Y16785715D02*
X33502438Y16880953D01*
X33502438Y16880953D02*
X33454819Y16976191D01*
X34454819Y17833334D02*
X33454819Y17833334D01*
X33454819Y17833334D02*
X33454819Y18214286D01*
X33454819Y18214286D02*
X33502438Y18309524D01*
X33502438Y18309524D02*
X33550057Y18357143D01*
X33550057Y18357143D02*
X33645295Y18404762D01*
X33645295Y18404762D02*
X33788152Y18404762D01*
X33788152Y18404762D02*
X33883390Y18357143D01*
X33883390Y18357143D02*
X33931009Y18309524D01*
X33931009Y18309524D02*
X33978628Y18214286D01*
X33978628Y18214286D02*
X33978628Y17833334D01*
X34073866Y18833334D02*
X34073866Y19595238D01*
X33454819Y20261905D02*
X33454819Y20357143D01*
X33454819Y20357143D02*
X33502438Y20452381D01*
X33502438Y20452381D02*
X33550057Y20500000D01*
X33550057Y20500000D02*
X33645295Y20547619D01*
X33645295Y20547619D02*
X33835771Y20595238D01*
X33835771Y20595238D02*
X34073866Y20595238D01*
X34073866Y20595238D02*
X34264342Y20547619D01*
X34264342Y20547619D02*
X34359580Y20500000D01*
X34359580Y20500000D02*
X34407200Y20452381D01*
X34407200Y20452381D02*
X34454819Y20357143D01*
X34454819Y20357143D02*
X34454819Y20261905D01*
X34454819Y20261905D02*
X34407200Y20166667D01*
X34407200Y20166667D02*
X34359580Y20119048D01*
X34359580Y20119048D02*
X34264342Y20071429D01*
X34264342Y20071429D02*
X34073866Y20023810D01*
X34073866Y20023810D02*
X33835771Y20023810D01*
X33835771Y20023810D02*
X33645295Y20071429D01*
X33645295Y20071429D02*
X33550057Y20119048D01*
X33550057Y20119048D02*
X33502438Y20166667D01*
X33502438Y20166667D02*
X33454819Y20261905D01*
X33454819Y21214286D02*
X33454819Y21309524D01*
X33454819Y21309524D02*
X33502438Y21404762D01*
X33502438Y21404762D02*
X33550057Y21452381D01*
X33550057Y21452381D02*
X33645295Y21500000D01*
X33645295Y21500000D02*
X33835771Y21547619D01*
X33835771Y21547619D02*
X34073866Y21547619D01*
X34073866Y21547619D02*
X34264342Y21500000D01*
X34264342Y21500000D02*
X34359580Y21452381D01*
X34359580Y21452381D02*
X34407200Y21404762D01*
X34407200Y21404762D02*
X34454819Y21309524D01*
X34454819Y21309524D02*
X34454819Y21214286D01*
X34454819Y21214286D02*
X34407200Y21119048D01*
X34407200Y21119048D02*
X34359580Y21071429D01*
X34359580Y21071429D02*
X34264342Y21023810D01*
X34264342Y21023810D02*
X34073866Y20976191D01*
X34073866Y20976191D02*
X33835771Y20976191D01*
X33835771Y20976191D02*
X33645295Y21023810D01*
X33645295Y21023810D02*
X33550057Y21071429D01*
X33550057Y21071429D02*
X33502438Y21119048D01*
X33502438Y21119048D02*
X33454819Y21214286D01*
X34454819Y22500000D02*
X34454819Y21928572D01*
X34454819Y22214286D02*
X33454819Y22214286D01*
X33454819Y22214286D02*
X33597676Y22119048D01*
X33597676Y22119048D02*
X33692914Y22023810D01*
X33692914Y22023810D02*
X33740533Y21928572D01*
X8724818Y31161667D02*
X9439103Y31161667D01*
X9439103Y31161667D02*
X9581960Y31114048D01*
X9581960Y31114048D02*
X9677199Y31018810D01*
X9677199Y31018810D02*
X9724818Y30875953D01*
X9724818Y30875953D02*
X9724818Y30780715D01*
X8820056Y31590239D02*
X8772437Y31637858D01*
X8772437Y31637858D02*
X8724818Y31733096D01*
X8724818Y31733096D02*
X8724818Y31971191D01*
X8724818Y31971191D02*
X8772437Y32066429D01*
X8772437Y32066429D02*
X8820056Y32114048D01*
X8820056Y32114048D02*
X8915294Y32161667D01*
X8915294Y32161667D02*
X9010532Y32161667D01*
X9010532Y32161667D02*
X9153389Y32114048D01*
X9153389Y32114048D02*
X9724818Y31542620D01*
X9724818Y31542620D02*
X9724818Y32161667D01*
X14238095Y14592800D02*
X14380952Y14545181D01*
X14380952Y14545181D02*
X14619047Y14545181D01*
X14619047Y14545181D02*
X14714285Y14592800D01*
X14714285Y14592800D02*
X14761904Y14640420D01*
X14761904Y14640420D02*
X14809523Y14735658D01*
X14809523Y14735658D02*
X14809523Y14830896D01*
X14809523Y14830896D02*
X14761904Y14926134D01*
X14761904Y14926134D02*
X14714285Y14973753D01*
X14714285Y14973753D02*
X14619047Y15021372D01*
X14619047Y15021372D02*
X14428571Y15068991D01*
X14428571Y15068991D02*
X14333333Y15116610D01*
X14333333Y15116610D02*
X14285714Y15164229D01*
X14285714Y15164229D02*
X14238095Y15259467D01*
X14238095Y15259467D02*
X14238095Y15354705D01*
X14238095Y15354705D02*
X14285714Y15449943D01*
X14285714Y15449943D02*
X14333333Y15497562D01*
X14333333Y15497562D02*
X14428571Y15545181D01*
X14428571Y15545181D02*
X14666666Y15545181D01*
X14666666Y15545181D02*
X14809523Y15497562D01*
X15761904Y14545181D02*
X15190476Y14545181D01*
X15476190Y14545181D02*
X15476190Y15545181D01*
X15476190Y15545181D02*
X15380952Y15402324D01*
X15380952Y15402324D02*
X15285714Y15307086D01*
X15285714Y15307086D02*
X15190476Y15259467D01*
X19389819Y-1333333D02*
X20104104Y-1333333D01*
X20104104Y-1333333D02*
X20246961Y-1380952D01*
X20246961Y-1380952D02*
X20342200Y-1476190D01*
X20342200Y-1476190D02*
X20389819Y-1619047D01*
X20389819Y-1619047D02*
X20389819Y-1714285D01*
X20389819Y-333333D02*
X20389819Y-904761D01*
X20389819Y-619047D02*
X19389819Y-619047D01*
X19389819Y-619047D02*
X19532676Y-714285D01*
X19532676Y-714285D02*
X19627914Y-809523D01*
X19627914Y-809523D02*
X19675533Y-904761D01*
%TO.C,J2*%
D11*
X10270000Y28845000D02*
X10270000Y30225000D01*
X11650000Y28845000D02*
X10270000Y28845000D01*
X12920000Y28845000D02*
X25730000Y28845000D01*
X12920000Y28845000D02*
X12920000Y31495000D01*
X25730000Y28845000D02*
X25730000Y34145000D01*
X10270000Y31495000D02*
X10270000Y34145000D01*
X12920000Y31495000D02*
X10270000Y31495000D01*
X10270000Y34145000D02*
X25730000Y34145000D01*
%TO.C,S1*%
X29139172Y18621775D02*
X24087664Y23582794D01*
X860828Y18621775D02*
X5912336Y23582794D01*
X29139172Y11378225D02*
X24087664Y6417206D01*
X860828Y11378225D02*
X5912336Y6417206D01*
X5912336Y23582794D02*
G75*
G02*
X24087664Y23582794I9087664J-8582793D01*
G01*
X29139172Y18621775D02*
G75*
G02*
X30500000Y15000000I-4139172J-3621775D01*
G01*
X30500000Y15000000D02*
G75*
G02*
X29139172Y11378225I-5500000J0D01*
G01*
X-500000Y15000000D02*
G75*
G02*
X860828Y18621775I5499998J0D01*
G01*
X860828Y11378225D02*
G75*
G02*
X-500000Y15000000I4139176J3621776D01*
G01*
X24087664Y6417206D02*
G75*
G02*
X5912336Y6417206I-9087664J8582794D01*
G01*
%TO.C,J1*%
X18935000Y380000D02*
X18934999Y-1000000D01*
X17555000Y379999D02*
X18935000Y380000D01*
X16285000Y380000D02*
X11095000Y380000D01*
X16285000Y380000D02*
X16285000Y-2380000D01*
X11095000Y380000D02*
X11095000Y-2380000D01*
X16285000Y-2380000D02*
X11095000Y-2380000D01*
%TD*%
%LPC*%
D12*
%TO.C,J2*%
X11650000Y30225000D03*
D13*
X11650000Y32765000D03*
X14190000Y30225000D03*
X14190000Y32765000D03*
X16730000Y30225000D03*
X16730000Y32765000D03*
X19270000Y30225000D03*
X19270000Y32765000D03*
X21810000Y30225000D03*
X21810000Y32765000D03*
X24350000Y30225000D03*
X24350000Y32765000D03*
%TD*%
D14*
%TO.C,S1*%
X5340742Y17588190D03*
X7928932Y22071068D03*
X12411810Y24659258D03*
X17588190Y24659258D03*
X22071068Y22071068D03*
X24659258Y17588190D03*
X24659258Y12411810D03*
X22071068Y7928932D03*
X17588190Y5340742D03*
X12411810Y5340742D03*
X7928932Y7928932D03*
X5340742Y12411810D03*
X9500000Y15000000D03*
X12250000Y19763140D03*
X17750000Y19763140D03*
X20500000Y15000000D03*
X17750000Y10236860D03*
X12250000Y10236860D03*
%TD*%
D12*
%TO.C,J1*%
X17555000Y-1000000D03*
D13*
X15015000Y-1000000D03*
X12475001Y-1000000D03*
%TD*%
D15*
%TO.C,H4*%
X30000000Y0D03*
%TD*%
%TO.C,H3*%
X0Y0D03*
%TD*%
%TO.C,H2*%
X30000000Y30000000D03*
%TD*%
%TO.C,H1*%
X0Y30000000D03*
%TD*%
%LPD*%
M02*
