M48
; DRILL file KiCad 10.0.6 date 2026-09-14T13:48:18
; FORMAT={-:-/ absolute / inch / decimal}
; #@! TF.CreationDate,2026-09-14T13:48:18+02:00
; #@! TF.GenerationSoftware,Kicad,Pcbnew,10.0.6
; #@! TF.FileFunction,Plated,1,2,PTH
FMAT,2
INCH
; #@! TA.AperFunction,Plated,PTH,ViaDrill
T1C0.0118
; #@! TA.AperFunction,Plated,PTH,ComponentDrill
T2C0.0394
; #@! TA.AperFunction,Plated,PTH,ComponentDrill
T3C0.0472
; #@! TA.AperFunction,Plated,PTH,ComponentDrill
T4C0.1260
%
G90
G05
T1
X0.37Y1.19
X0.5128Y1.1306
X0.5628Y1.1006
X0.6128Y1.1306
X0.6628Y1.1006
X0.7128Y1.1306
X0.9728Y0.5906
X1.0528Y0.5906
X1.1028Y0.5906
X1.1528Y0.5906
X1.2028Y0.5906
T2
X0.4587Y1.29
X0.4587Y1.19
X0.4911Y-0.0394
X0.5587Y1.29
X0.5587Y1.19
X0.5911Y-0.0394
X0.6587Y1.29
X0.6587Y1.19
X0.6911Y-0.0394
X0.7587Y1.29
X0.7587Y1.19
X0.8587Y1.29
X0.8587Y1.19
X0.9587Y1.29
X0.9587Y1.19
T3
X0.2103Y0.6924
X0.2103Y0.4887
X0.3122Y0.8689
X0.3122Y0.3122
X0.374Y0.5906
X0.4823Y0.7781
X0.4823Y0.403
X0.4887Y0.9708
X0.4887Y0.2103
X0.6924Y0.9708
X0.6924Y0.2103
X0.6988Y0.7781
X0.6988Y0.403
X0.8071Y0.5906
X0.8689Y0.8689
X0.8689Y0.3122
X0.9708Y0.6924
X0.9708Y0.4887
T4
X0.0Y1.1811
X0.0Y0.0
X1.1811Y1.1811
X1.1811Y0.0
M30
