%TF.GenerationSoftware,KiCad,Pcbnew,10.0.6*%
%TF.CreationDate,2026-09-14T15:46:07+02:00*%
%TF.ProjectId,bottom board,626f7474-6f6d-4206-926f-6172642e6b69,001*%
%TF.SameCoordinates,Original*%
%TF.FileFunction,Paste,Bot*%
%TF.FilePolarity,Positive*%
%FSLAX46Y46*%
G04 Gerber Fmt 4.6, Leading zero omitted, Abs format (unit mm)*
G04 Created by KiCad (PCBNEW 10.0.6) date 2026-09-14 15:46:07*
%MOMM*%
%LPD*%
G01*
G04 APERTURE LIST*
G04 Aperture macros list*
%AMRoundRect*
0 Rectangle with rounded corners*
0 $1 Rounding radius*
0 $2 $3 $4 $5 $6 $7 $8 $9 X,Y pos of 4 corners*
0 Add a 4 corners polygon primitive as box body*
4,1,4,$2,$3,$4,$5,$6,$7,$8,$9,$2,$3,0*
0 Add four circle primitives for the rounded corners*
1,1,$1+$1,$2,$3*
1,1,$1+$1,$4,$5*
1,1,$1+$1,$6,$7*
1,1,$1+$1,$8,$9*
0 Add four rect primitives between the rounded corners*
20,1,$1+$1,$2,$3,$4,$5,0*
20,1,$1+$1,$4,$5,$6,$7,0*
20,1,$1+$1,$6,$7,$8,$9,0*
20,1,$1+$1,$8,$9,$2,$3,0*%
G04 Aperture macros list end*
%ADD10RoundRect,0.250000X0.625000X-0.312500X0.625000X0.312500X-0.625000X0.312500X-0.625000X-0.312500X0*%
%ADD11RoundRect,0.250000X-0.450000X0.262500X-0.450000X-0.262500X0.450000X-0.262500X0.450000X0.262500X0*%
%ADD12RoundRect,0.250000X1.075000X-0.312500X1.075000X0.312500X-1.075000X0.312500X-1.075000X-0.312500X0*%
%ADD13RoundRect,0.250000X-1.075000X0.312500X-1.075000X-0.312500X1.075000X-0.312500X1.075000X0.312500X0*%
%ADD14RoundRect,0.250000X0.262500X0.450000X-0.262500X0.450000X-0.262500X-0.450000X0.262500X-0.450000X0*%
%ADD15RoundRect,0.250000X-0.625000X0.312500X-0.625000X-0.312500X0.625000X-0.312500X0.625000X0.312500X0*%
%ADD16RoundRect,0.250000X0.312500X1.075000X-0.312500X1.075000X-0.312500X-1.075000X0.312500X-1.075000X0*%
%ADD17RoundRect,0.250000X0.312500X0.625000X-0.312500X0.625000X-0.312500X-0.625000X0.312500X-0.625000X0*%
G04 APERTURE END LIST*
D10*
%TO.C,R20*%
X21096001Y1091500D03*
X21096001Y4016500D03*
%TD*%
D11*
%TO.C,R18*%
X17794001Y7784500D03*
X17794001Y5959500D03*
%TD*%
D12*
%TO.C,R19*%
X20588001Y-3734500D03*
X20588001Y-809500D03*
%TD*%
%TO.C,R10*%
X9412001Y-3734500D03*
X9412001Y-809500D03*
%TD*%
D10*
%TO.C,R11*%
X9920001Y1091500D03*
X9920001Y4016500D03*
%TD*%
D13*
%TO.C,R22*%
X23382001Y17478500D03*
X23382001Y14553500D03*
%TD*%
D11*
%TO.C,R24*%
X23382001Y7784500D03*
X23382001Y5959500D03*
%TD*%
D14*
%TO.C,R12*%
X10324501Y6110000D03*
X8499501Y6110000D03*
%TD*%
D15*
%TO.C,R26*%
X28970001Y12652500D03*
X28970001Y9727500D03*
%TD*%
D11*
%TO.C,R27*%
X28970001Y7784500D03*
X28970001Y5959500D03*
%TD*%
D15*
%TO.C,R17*%
X17794001Y12652500D03*
X17794001Y9727500D03*
%TD*%
D11*
%TO.C,R9*%
X6618001Y5959500D03*
X6618001Y7784500D03*
%TD*%
D14*
%TO.C,R3*%
X6514501Y27446000D03*
X4689501Y27446000D03*
%TD*%
D13*
%TO.C,R4*%
X1030001Y17478500D03*
X1030001Y14553500D03*
%TD*%
%TO.C,R7*%
X6618001Y17478500D03*
X6618001Y14553500D03*
%TD*%
D16*
%TO.C,R1*%
X7572501Y32780000D03*
X4647501Y32780000D03*
%TD*%
D15*
%TO.C,R5*%
X1030001Y12652500D03*
X1030001Y9727500D03*
%TD*%
D13*
%TO.C,R13*%
X12206001Y17478500D03*
X12206001Y14553500D03*
%TD*%
D17*
%TO.C,R2*%
X7572501Y29732000D03*
X4647501Y29732000D03*
%TD*%
D13*
%TO.C,R16*%
X17794001Y17478500D03*
X17794001Y14553500D03*
%TD*%
D11*
%TO.C,R6*%
X1030001Y5959500D03*
X1030001Y7784500D03*
%TD*%
D14*
%TO.C,R21*%
X21500501Y6110000D03*
X19675501Y6110000D03*
%TD*%
D15*
%TO.C,R8*%
X6618001Y9727500D03*
X6618001Y12652500D03*
%TD*%
D11*
%TO.C,R15*%
X12206001Y7784500D03*
X12206001Y5959500D03*
%TD*%
D13*
%TO.C,R25*%
X28970001Y17478500D03*
X28970001Y14553500D03*
%TD*%
D15*
%TO.C,R14*%
X12206001Y9727500D03*
X12206001Y12652500D03*
%TD*%
%TO.C,R23*%
X23382001Y12652500D03*
X23382001Y9727500D03*
%TD*%
M02*
