M48
; DRILL file KiCad 10.0.6 date 2026-09-14T15:46:07
; FORMAT={-:-/ absolute / inch / decimal}
; #@! TF.CreationDate,2026-09-14T15:46:07+02:00
; #@! TF.GenerationSoftware,Kicad,Pcbnew,10.0.6
; #@! TF.FileFunction,Plated,1,2,PTH
FMAT,2
INCH
; #@! TA.AperFunction,Plated,PTH,ViaDrill
T1C0.0118
; #@! TA.AperFunction,Plated,PTH,ComponentDrill
T2C0.0315
; #@! TA.AperFunction,Plated,PTH,ComponentDrill
T3C0.0394
; #@! TA.AperFunction,Plated,PTH,ComponentDrill
T4C0.1260
%
G90
G05
T1
X0.5306Y0.1606
X0.6606Y1.0906
X0.7506Y0.7806
X0.7506Y0.1606
T2
X-0.0694Y0.9302
X-0.0694Y0.8302
X-0.0694Y0.7302
X-0.0694Y0.5206
X-0.0694Y0.4206
X-0.0694Y0.3206
X0.1506Y0.9306
X0.1506Y0.8306
X0.1506Y0.7306
X0.1506Y0.5206
X0.1506Y0.4206
X0.1506Y0.3206
X0.2606Y0.1109
X0.2606Y0.0109
X0.2606Y-0.0891
X0.3706Y0.9306
X0.3706Y0.8306
X0.3706Y0.7306
X0.3706Y0.5206
X0.3706Y0.4206
X0.3706Y0.3206
X0.4806Y0.1106
X0.4806Y0.0106
X0.4806Y-0.0894
X0.5906Y0.9302
X0.5906Y0.8302
X0.5906Y0.7302
X0.5906Y0.5202
X0.5906Y0.4202
X0.5906Y0.3202
X0.7006Y0.1106
X0.7006Y0.0106
X0.7006Y-0.0894
X0.8106Y0.9306
X0.8106Y0.8306
X0.8106Y0.7306
X0.8106Y0.5206
X0.8106Y0.4206
X0.8106Y0.3206
X0.9206Y0.1106
X0.9206Y0.0106
X0.9206Y-0.0894
X1.0306Y0.9306
X1.0306Y0.8306
X1.0306Y0.7306
X1.0306Y0.5206
X1.0306Y0.4206
X1.0306Y0.3206
X1.2506Y0.9302
X1.2506Y0.8302
X1.2506Y0.7302
X1.2506Y0.5202
X1.2506Y0.4202
X1.2506Y0.3202
T3
X0.4587Y1.29
X0.4587Y1.19
X0.5587Y1.29
X0.5587Y1.19
X0.6587Y1.29
X0.6587Y1.19
X0.7587Y1.29
X0.7587Y1.19
X0.8587Y1.29
X0.8587Y1.19
X0.9587Y1.29
X0.9587Y1.19
T4
X0.0Y1.1811
X0.0Y0.0
X1.1811Y1.1811
X1.1811Y0.0
M30
