%TF.GenerationSoftware,KiCad,Pcbnew,10.0.6*%
%TF.CreationDate,2026-09-14T15:46:07+02:00*%
%TF.ProjectId,bottom board,626f7474-6f6d-4206-926f-6172642e6b69,001*%
%TF.SameCoordinates,Original*%
%TF.FileFunction,Legend,Bot*%
%TF.FilePolarity,Positive*%
%FSLAX46Y46*%
G04 Gerber Fmt 4.6, Leading zero omitted, Abs format (unit mm)*
G04 Created by KiCad (PCBNEW 10.0.6) date 2026-09-14 15:46:07*
%MOMM*%
%LPD*%
G01*
G04 APERTURE LIST*
G04 Aperture macros list*
%AMRoundRect*
0 Rectangle with rounded corners*
0 $1 Rounding radius*
0 $2 $3 $4 $5 $6 $7 $8 $9 X,Y pos of 4 corners*
0 Add a 4 corners polygon primitive as box body*
4,1,4,$2,$3,$4,$5,$6,$7,$8,$9,$2,$3,0*
0 Add four circle primitives for the rounded corners*
1,1,$1+$1,$2,$3*
1,1,$1+$1,$4,$5*
1,1,$1+$1,$6,$7*
1,1,$1+$1,$8,$9*
0 Add four rect primitives between the rounded corners*
20,1,$1+$1,$2,$3,$4,$5,0*
20,1,$1+$1,$4,$5,$6,$7,0*
20,1,$1+$1,$6,$7,$8,$9,0*
20,1,$1+$1,$8,$9,$2,$3,0*%
G04 Aperture macros list end*
%ADD10C,0.150000*%
%ADD11C,0.120000*%
%ADD12R,1.700000X1.700000*%
%ADD13C,1.700000*%
%ADD14C,6.400000*%
%ADD15C,1.440000*%
%ADD16RoundRect,0.250000X0.625000X-0.312500X0.625000X0.312500X-0.625000X0.312500X-0.625000X-0.312500X0*%
%ADD17RoundRect,0.250000X-0.450000X0.262500X-0.450000X-0.262500X0.450000X-0.262500X0.450000X0.262500X0*%
%ADD18RoundRect,0.250000X1.075000X-0.312500X1.075000X0.312500X-1.075000X0.312500X-1.075000X-0.312500X0*%
%ADD19RoundRect,0.250000X-1.075000X0.312500X-1.075000X-0.312500X1.075000X-0.312500X1.075000X0.312500X0*%
%ADD20RoundRect,0.250000X0.262500X0.450000X-0.262500X0.450000X-0.262500X-0.450000X0.262500X-0.450000X0*%
%ADD21RoundRect,0.250000X-0.625000X0.312500X-0.625000X-0.312500X0.625000X-0.312500X0.625000X0.312500X0*%
%ADD22RoundRect,0.250000X0.312500X1.075000X-0.312500X1.075000X-0.312500X-1.075000X0.312500X-1.075000X0*%
%ADD23RoundRect,0.250000X0.312500X0.625000X-0.312500X0.625000X-0.312500X-0.625000X0.312500X-0.625000X0*%
G04 APERTURE END LIST*
D10*
X34454820Y22452381D02*
X33454820Y22452381D01*
X33454820Y22452381D02*
X33454820Y22071429D01*
X33454820Y22071429D02*
X33502439Y21976191D01*
X33502439Y21976191D02*
X33550058Y21928572D01*
X33550058Y21928572D02*
X33645296Y21880953D01*
X33645296Y21880953D02*
X33788153Y21880953D01*
X33788153Y21880953D02*
X33883391Y21928572D01*
X33883391Y21928572D02*
X33931010Y21976191D01*
X33931010Y21976191D02*
X33978629Y22071429D01*
X33978629Y22071429D02*
X33978629Y22452381D01*
X34359581Y20880953D02*
X34407201Y20928572D01*
X34407201Y20928572D02*
X34454820Y21071429D01*
X34454820Y21071429D02*
X34454820Y21166667D01*
X34454820Y21166667D02*
X34407201Y21309524D01*
X34407201Y21309524D02*
X34311962Y21404762D01*
X34311962Y21404762D02*
X34216724Y21452381D01*
X34216724Y21452381D02*
X34026248Y21500000D01*
X34026248Y21500000D02*
X33883391Y21500000D01*
X33883391Y21500000D02*
X33692915Y21452381D01*
X33692915Y21452381D02*
X33597677Y21404762D01*
X33597677Y21404762D02*
X33502439Y21309524D01*
X33502439Y21309524D02*
X33454820Y21166667D01*
X33454820Y21166667D02*
X33454820Y21071429D01*
X33454820Y21071429D02*
X33502439Y20928572D01*
X33502439Y20928572D02*
X33550058Y20880953D01*
X33931010Y20119048D02*
X33978629Y19976191D01*
X33978629Y19976191D02*
X34026248Y19928572D01*
X34026248Y19928572D02*
X34121486Y19880953D01*
X34121486Y19880953D02*
X34264343Y19880953D01*
X34264343Y19880953D02*
X34359581Y19928572D01*
X34359581Y19928572D02*
X34407201Y19976191D01*
X34407201Y19976191D02*
X34454820Y20071429D01*
X34454820Y20071429D02*
X34454820Y20452381D01*
X34454820Y20452381D02*
X33454820Y20452381D01*
X33454820Y20452381D02*
X33454820Y20119048D01*
X33454820Y20119048D02*
X33502439Y20023810D01*
X33502439Y20023810D02*
X33550058Y19976191D01*
X33550058Y19976191D02*
X33645296Y19928572D01*
X33645296Y19928572D02*
X33740534Y19928572D01*
X33740534Y19928572D02*
X33835772Y19976191D01*
X33835772Y19976191D02*
X33883391Y20023810D01*
X33883391Y20023810D02*
X33931010Y20119048D01*
X33931010Y20119048D02*
X33931010Y20452381D01*
X34073867Y19452381D02*
X34073867Y18690476D01*
X34454820Y18214286D02*
X33454820Y18214286D01*
X33454820Y18214286D02*
X33454820Y17976191D01*
X33454820Y17976191D02*
X33502439Y17833334D01*
X33502439Y17833334D02*
X33597677Y17738096D01*
X33597677Y17738096D02*
X33692915Y17690477D01*
X33692915Y17690477D02*
X33883391Y17642858D01*
X33883391Y17642858D02*
X34026248Y17642858D01*
X34026248Y17642858D02*
X34216724Y17690477D01*
X34216724Y17690477D02*
X34311962Y17738096D01*
X34311962Y17738096D02*
X34407201Y17833334D01*
X34407201Y17833334D02*
X34454820Y17976191D01*
X34454820Y17976191D02*
X34454820Y18214286D01*
X34454820Y16642858D02*
X33978629Y16976191D01*
X34454820Y17214286D02*
X33454820Y17214286D01*
X33454820Y17214286D02*
X33454820Y16833334D01*
X33454820Y16833334D02*
X33502439Y16738096D01*
X33502439Y16738096D02*
X33550058Y16690477D01*
X33550058Y16690477D02*
X33645296Y16642858D01*
X33645296Y16642858D02*
X33788153Y16642858D01*
X33788153Y16642858D02*
X33883391Y16690477D01*
X33883391Y16690477D02*
X33931010Y16738096D01*
X33931010Y16738096D02*
X33978629Y16833334D01*
X33978629Y16833334D02*
X33978629Y17214286D01*
X33931010Y15880953D02*
X33978629Y15738096D01*
X33978629Y15738096D02*
X34026248Y15690477D01*
X34026248Y15690477D02*
X34121486Y15642858D01*
X34121486Y15642858D02*
X34264343Y15642858D01*
X34264343Y15642858D02*
X34359581Y15690477D01*
X34359581Y15690477D02*
X34407201Y15738096D01*
X34407201Y15738096D02*
X34454820Y15833334D01*
X34454820Y15833334D02*
X34454820Y16214286D01*
X34454820Y16214286D02*
X33454820Y16214286D01*
X33454820Y16214286D02*
X33454820Y15880953D01*
X33454820Y15880953D02*
X33502439Y15785715D01*
X33502439Y15785715D02*
X33550058Y15738096D01*
X33550058Y15738096D02*
X33645296Y15690477D01*
X33645296Y15690477D02*
X33740534Y15690477D01*
X33740534Y15690477D02*
X33835772Y15738096D01*
X33835772Y15738096D02*
X33883391Y15785715D01*
X33883391Y15785715D02*
X33931010Y15880953D01*
X33931010Y15880953D02*
X33931010Y16214286D01*
X34073867Y15214286D02*
X34073867Y14452381D01*
X33931010Y13642858D02*
X33978629Y13500001D01*
X33978629Y13500001D02*
X34026248Y13452382D01*
X34026248Y13452382D02*
X34121486Y13404763D01*
X34121486Y13404763D02*
X34264343Y13404763D01*
X34264343Y13404763D02*
X34359581Y13452382D01*
X34359581Y13452382D02*
X34407201Y13500001D01*
X34407201Y13500001D02*
X34454820Y13595239D01*
X34454820Y13595239D02*
X34454820Y13976191D01*
X34454820Y13976191D02*
X33454820Y13976191D01*
X33454820Y13976191D02*
X33454820Y13642858D01*
X33454820Y13642858D02*
X33502439Y13547620D01*
X33502439Y13547620D02*
X33550058Y13500001D01*
X33550058Y13500001D02*
X33645296Y13452382D01*
X33645296Y13452382D02*
X33740534Y13452382D01*
X33740534Y13452382D02*
X33835772Y13500001D01*
X33835772Y13500001D02*
X33883391Y13547620D01*
X33883391Y13547620D02*
X33931010Y13642858D01*
X33931010Y13642858D02*
X33931010Y13976191D01*
X33454820Y12785715D02*
X33454820Y12595239D01*
X33454820Y12595239D02*
X33502439Y12500001D01*
X33502439Y12500001D02*
X33597677Y12404763D01*
X33597677Y12404763D02*
X33788153Y12357144D01*
X33788153Y12357144D02*
X34121486Y12357144D01*
X34121486Y12357144D02*
X34311962Y12404763D01*
X34311962Y12404763D02*
X34407201Y12500001D01*
X34407201Y12500001D02*
X34454820Y12595239D01*
X34454820Y12595239D02*
X34454820Y12785715D01*
X34454820Y12785715D02*
X34407201Y12880953D01*
X34407201Y12880953D02*
X34311962Y12976191D01*
X34311962Y12976191D02*
X34121486Y13023810D01*
X34121486Y13023810D02*
X33788153Y13023810D01*
X33788153Y13023810D02*
X33597677Y12976191D01*
X33597677Y12976191D02*
X33502439Y12880953D01*
X33502439Y12880953D02*
X33454820Y12785715D01*
X33454820Y12071429D02*
X33454820Y11500001D01*
X34454820Y11785715D02*
X33454820Y11785715D01*
X34073867Y11166667D02*
X34073867Y10404762D01*
X33454820Y9738096D02*
X33454820Y9642858D01*
X33454820Y9642858D02*
X33502439Y9547620D01*
X33502439Y9547620D02*
X33550058Y9500001D01*
X33550058Y9500001D02*
X33645296Y9452382D01*
X33645296Y9452382D02*
X33835772Y9404763D01*
X33835772Y9404763D02*
X34073867Y9404763D01*
X34073867Y9404763D02*
X34264343Y9452382D01*
X34264343Y9452382D02*
X34359581Y9500001D01*
X34359581Y9500001D02*
X34407201Y9547620D01*
X34407201Y9547620D02*
X34454820Y9642858D01*
X34454820Y9642858D02*
X34454820Y9738096D01*
X34454820Y9738096D02*
X34407201Y9833334D01*
X34407201Y9833334D02*
X34359581Y9880953D01*
X34359581Y9880953D02*
X34264343Y9928572D01*
X34264343Y9928572D02*
X34073867Y9976191D01*
X34073867Y9976191D02*
X33835772Y9976191D01*
X33835772Y9976191D02*
X33645296Y9928572D01*
X33645296Y9928572D02*
X33550058Y9880953D01*
X33550058Y9880953D02*
X33502439Y9833334D01*
X33502439Y9833334D02*
X33454820Y9738096D01*
X33454820Y8785715D02*
X33454820Y8690477D01*
X33454820Y8690477D02*
X33502439Y8595239D01*
X33502439Y8595239D02*
X33550058Y8547620D01*
X33550058Y8547620D02*
X33645296Y8500001D01*
X33645296Y8500001D02*
X33835772Y8452382D01*
X33835772Y8452382D02*
X34073867Y8452382D01*
X34073867Y8452382D02*
X34264343Y8500001D01*
X34264343Y8500001D02*
X34359581Y8547620D01*
X34359581Y8547620D02*
X34407201Y8595239D01*
X34407201Y8595239D02*
X34454820Y8690477D01*
X34454820Y8690477D02*
X34454820Y8785715D01*
X34454820Y8785715D02*
X34407201Y8880953D01*
X34407201Y8880953D02*
X34359581Y8928572D01*
X34359581Y8928572D02*
X34264343Y8976191D01*
X34264343Y8976191D02*
X34073867Y9023810D01*
X34073867Y9023810D02*
X33835772Y9023810D01*
X33835772Y9023810D02*
X33645296Y8976191D01*
X33645296Y8976191D02*
X33550058Y8928572D01*
X33550058Y8928572D02*
X33502439Y8880953D01*
X33502439Y8880953D02*
X33454820Y8785715D01*
X34454820Y7500001D02*
X34454820Y8071429D01*
X34454820Y7785715D02*
X33454820Y7785715D01*
X33454820Y7785715D02*
X33597677Y7880953D01*
X33597677Y7880953D02*
X33692915Y7976191D01*
X33692915Y7976191D02*
X33740534Y8071429D01*
X26050820Y3196858D02*
X25574629Y3530191D01*
X26050820Y3768286D02*
X25050820Y3768286D01*
X25050820Y3768286D02*
X25050820Y3387334D01*
X25050820Y3387334D02*
X25098439Y3292096D01*
X25098439Y3292096D02*
X25146058Y3244477D01*
X25146058Y3244477D02*
X25241296Y3196858D01*
X25241296Y3196858D02*
X25384153Y3196858D01*
X25384153Y3196858D02*
X25479391Y3244477D01*
X25479391Y3244477D02*
X25527010Y3292096D01*
X25527010Y3292096D02*
X25574629Y3387334D01*
X25574629Y3387334D02*
X25574629Y3768286D01*
X25146058Y2815905D02*
X25098439Y2768286D01*
X25098439Y2768286D02*
X25050820Y2673048D01*
X25050820Y2673048D02*
X25050820Y2434953D01*
X25050820Y2434953D02*
X25098439Y2339715D01*
X25098439Y2339715D02*
X25146058Y2292096D01*
X25146058Y2292096D02*
X25241296Y2244477D01*
X25241296Y2244477D02*
X25336534Y2244477D01*
X25336534Y2244477D02*
X25479391Y2292096D01*
X25479391Y2292096D02*
X26050820Y2863524D01*
X26050820Y2863524D02*
X26050820Y2244477D01*
X25050820Y1625429D02*
X25050820Y1530191D01*
X25050820Y1530191D02*
X25098439Y1434953D01*
X25098439Y1434953D02*
X25146058Y1387334D01*
X25146058Y1387334D02*
X25241296Y1339715D01*
X25241296Y1339715D02*
X25431772Y1292096D01*
X25431772Y1292096D02*
X25669867Y1292096D01*
X25669867Y1292096D02*
X25860343Y1339715D01*
X25860343Y1339715D02*
X25955581Y1387334D01*
X25955581Y1387334D02*
X26003201Y1434953D01*
X26003201Y1434953D02*
X26050820Y1530191D01*
X26050820Y1530191D02*
X26050820Y1625429D01*
X26050820Y1625429D02*
X26003201Y1720667D01*
X26003201Y1720667D02*
X25955581Y1768286D01*
X25955581Y1768286D02*
X25860343Y1815905D01*
X25860343Y1815905D02*
X25669867Y1863524D01*
X25669867Y1863524D02*
X25431772Y1863524D01*
X25431772Y1863524D02*
X25241296Y1815905D01*
X25241296Y1815905D02*
X25146058Y1768286D01*
X25146058Y1768286D02*
X25098439Y1720667D01*
X25098439Y1720667D02*
X25050820Y1625429D01*
X18442857Y18495181D02*
X18776190Y18971372D01*
X19014285Y18495181D02*
X19014285Y19495181D01*
X19014285Y19495181D02*
X18633333Y19495181D01*
X18633333Y19495181D02*
X18538095Y19447562D01*
X18538095Y19447562D02*
X18490476Y19399943D01*
X18490476Y19399943D02*
X18442857Y19304705D01*
X18442857Y19304705D02*
X18442857Y19161848D01*
X18442857Y19161848D02*
X18490476Y19066610D01*
X18490476Y19066610D02*
X18538095Y19018991D01*
X18538095Y19018991D02*
X18633333Y18971372D01*
X18633333Y18971372D02*
X19014285Y18971372D01*
X17490476Y18495181D02*
X18061904Y18495181D01*
X17776190Y18495181D02*
X17776190Y19495181D01*
X17776190Y19495181D02*
X17871428Y19352324D01*
X17871428Y19352324D02*
X17966666Y19257086D01*
X17966666Y19257086D02*
X18061904Y19209467D01*
X16919047Y19066610D02*
X17014285Y19114229D01*
X17014285Y19114229D02*
X17061904Y19161848D01*
X17061904Y19161848D02*
X17109523Y19257086D01*
X17109523Y19257086D02*
X17109523Y19304705D01*
X17109523Y19304705D02*
X17061904Y19399943D01*
X17061904Y19399943D02*
X17014285Y19447562D01*
X17014285Y19447562D02*
X16919047Y19495181D01*
X16919047Y19495181D02*
X16728571Y19495181D01*
X16728571Y19495181D02*
X16633333Y19447562D01*
X16633333Y19447562D02*
X16585714Y19399943D01*
X16585714Y19399943D02*
X16538095Y19304705D01*
X16538095Y19304705D02*
X16538095Y19257086D01*
X16538095Y19257086D02*
X16585714Y19161848D01*
X16585714Y19161848D02*
X16633333Y19114229D01*
X16633333Y19114229D02*
X16728571Y19066610D01*
X16728571Y19066610D02*
X16919047Y19066610D01*
X16919047Y19066610D02*
X17014285Y19018991D01*
X17014285Y19018991D02*
X17061904Y18971372D01*
X17061904Y18971372D02*
X17109523Y18876134D01*
X17109523Y18876134D02*
X17109523Y18685658D01*
X17109523Y18685658D02*
X17061904Y18590420D01*
X17061904Y18590420D02*
X17014285Y18542800D01*
X17014285Y18542800D02*
X16919047Y18495181D01*
X16919047Y18495181D02*
X16728571Y18495181D01*
X16728571Y18495181D02*
X16633333Y18542800D01*
X16633333Y18542800D02*
X16585714Y18590420D01*
X16585714Y18590420D02*
X16538095Y18685658D01*
X16538095Y18685658D02*
X16538095Y18876134D01*
X16538095Y18876134D02*
X16585714Y18971372D01*
X16585714Y18971372D02*
X16633333Y19018991D01*
X16633333Y19018991D02*
X16728571Y19066610D01*
X26050820Y-1643142D02*
X25574629Y-1309809D01*
X26050820Y-1071714D02*
X25050820Y-1071714D01*
X25050820Y-1071714D02*
X25050820Y-1452666D01*
X25050820Y-1452666D02*
X25098439Y-1547904D01*
X25098439Y-1547904D02*
X25146058Y-1595523D01*
X25146058Y-1595523D02*
X25241296Y-1643142D01*
X25241296Y-1643142D02*
X25384153Y-1643142D01*
X25384153Y-1643142D02*
X25479391Y-1595523D01*
X25479391Y-1595523D02*
X25527010Y-1547904D01*
X25527010Y-1547904D02*
X25574629Y-1452666D01*
X25574629Y-1452666D02*
X25574629Y-1071714D01*
X26050820Y-2595523D02*
X26050820Y-2024095D01*
X26050820Y-2309809D02*
X25050820Y-2309809D01*
X25050820Y-2309809D02*
X25193677Y-2214571D01*
X25193677Y-2214571D02*
X25288915Y-2119333D01*
X25288915Y-2119333D02*
X25336534Y-2024095D01*
X26050820Y-3071714D02*
X26050820Y-3262190D01*
X26050820Y-3262190D02*
X26003201Y-3357428D01*
X26003201Y-3357428D02*
X25955581Y-3405047D01*
X25955581Y-3405047D02*
X25812724Y-3500285D01*
X25812724Y-3500285D02*
X25622248Y-3547904D01*
X25622248Y-3547904D02*
X25241296Y-3547904D01*
X25241296Y-3547904D02*
X25146058Y-3500285D01*
X25146058Y-3500285D02*
X25098439Y-3452666D01*
X25098439Y-3452666D02*
X25050820Y-3357428D01*
X25050820Y-3357428D02*
X25050820Y-3166952D01*
X25050820Y-3166952D02*
X25098439Y-3071714D01*
X25098439Y-3071714D02*
X25146058Y-3024095D01*
X25146058Y-3024095D02*
X25241296Y-2976476D01*
X25241296Y-2976476D02*
X25479391Y-2976476D01*
X25479391Y-2976476D02*
X25574629Y-3024095D01*
X25574629Y-3024095D02*
X25622248Y-3071714D01*
X25622248Y-3071714D02*
X25669867Y-3166952D01*
X25669867Y-3166952D02*
X25669867Y-3357428D01*
X25669867Y-3357428D02*
X25622248Y-3452666D01*
X25622248Y-3452666D02*
X25574629Y-3500285D01*
X25574629Y-3500285D02*
X25479391Y-3547904D01*
X15382820Y-1629142D02*
X14906629Y-1295809D01*
X15382820Y-1057714D02*
X14382820Y-1057714D01*
X14382820Y-1057714D02*
X14382820Y-1438666D01*
X14382820Y-1438666D02*
X14430439Y-1533904D01*
X14430439Y-1533904D02*
X14478058Y-1581523D01*
X14478058Y-1581523D02*
X14573296Y-1629142D01*
X14573296Y-1629142D02*
X14716153Y-1629142D01*
X14716153Y-1629142D02*
X14811391Y-1581523D01*
X14811391Y-1581523D02*
X14859010Y-1533904D01*
X14859010Y-1533904D02*
X14906629Y-1438666D01*
X14906629Y-1438666D02*
X14906629Y-1057714D01*
X15382820Y-2581523D02*
X15382820Y-2010095D01*
X15382820Y-2295809D02*
X14382820Y-2295809D01*
X14382820Y-2295809D02*
X14525677Y-2200571D01*
X14525677Y-2200571D02*
X14620915Y-2105333D01*
X14620915Y-2105333D02*
X14668534Y-2010095D01*
X14382820Y-3200571D02*
X14382820Y-3295809D01*
X14382820Y-3295809D02*
X14430439Y-3391047D01*
X14430439Y-3391047D02*
X14478058Y-3438666D01*
X14478058Y-3438666D02*
X14573296Y-3486285D01*
X14573296Y-3486285D02*
X14763772Y-3533904D01*
X14763772Y-3533904D02*
X15001867Y-3533904D01*
X15001867Y-3533904D02*
X15192343Y-3486285D01*
X15192343Y-3486285D02*
X15287581Y-3438666D01*
X15287581Y-3438666D02*
X15335201Y-3391047D01*
X15335201Y-3391047D02*
X15382820Y-3295809D01*
X15382820Y-3295809D02*
X15382820Y-3200571D01*
X15382820Y-3200571D02*
X15335201Y-3105333D01*
X15335201Y-3105333D02*
X15287581Y-3057714D01*
X15287581Y-3057714D02*
X15192343Y-3010095D01*
X15192343Y-3010095D02*
X15001867Y-2962476D01*
X15001867Y-2962476D02*
X14763772Y-2962476D01*
X14763772Y-2962476D02*
X14573296Y-3010095D01*
X14573296Y-3010095D02*
X14478058Y-3057714D01*
X14478058Y-3057714D02*
X14430439Y-3105333D01*
X14430439Y-3105333D02*
X14382820Y-3200571D01*
X15382820Y3196858D02*
X14906629Y3530191D01*
X15382820Y3768286D02*
X14382820Y3768286D01*
X14382820Y3768286D02*
X14382820Y3387334D01*
X14382820Y3387334D02*
X14430439Y3292096D01*
X14430439Y3292096D02*
X14478058Y3244477D01*
X14478058Y3244477D02*
X14573296Y3196858D01*
X14573296Y3196858D02*
X14716153Y3196858D01*
X14716153Y3196858D02*
X14811391Y3244477D01*
X14811391Y3244477D02*
X14859010Y3292096D01*
X14859010Y3292096D02*
X14906629Y3387334D01*
X14906629Y3387334D02*
X14906629Y3768286D01*
X15382820Y2244477D02*
X15382820Y2815905D01*
X15382820Y2530191D02*
X14382820Y2530191D01*
X14382820Y2530191D02*
X14525677Y2625429D01*
X14525677Y2625429D02*
X14620915Y2720667D01*
X14620915Y2720667D02*
X14668534Y2815905D01*
X15382820Y1292096D02*
X15382820Y1863524D01*
X15382820Y1577810D02*
X14382820Y1577810D01*
X14382820Y1577810D02*
X14525677Y1673048D01*
X14525677Y1673048D02*
X14620915Y1768286D01*
X14620915Y1768286D02*
X14668534Y1863524D01*
X24042857Y21595181D02*
X24376190Y22071372D01*
X24614285Y21595181D02*
X24614285Y22595181D01*
X24614285Y22595181D02*
X24233333Y22595181D01*
X24233333Y22595181D02*
X24138095Y22547562D01*
X24138095Y22547562D02*
X24090476Y22499943D01*
X24090476Y22499943D02*
X24042857Y22404705D01*
X24042857Y22404705D02*
X24042857Y22261848D01*
X24042857Y22261848D02*
X24090476Y22166610D01*
X24090476Y22166610D02*
X24138095Y22118991D01*
X24138095Y22118991D02*
X24233333Y22071372D01*
X24233333Y22071372D02*
X24614285Y22071372D01*
X23661904Y22499943D02*
X23614285Y22547562D01*
X23614285Y22547562D02*
X23519047Y22595181D01*
X23519047Y22595181D02*
X23280952Y22595181D01*
X23280952Y22595181D02*
X23185714Y22547562D01*
X23185714Y22547562D02*
X23138095Y22499943D01*
X23138095Y22499943D02*
X23090476Y22404705D01*
X23090476Y22404705D02*
X23090476Y22309467D01*
X23090476Y22309467D02*
X23138095Y22166610D01*
X23138095Y22166610D02*
X23709523Y21595181D01*
X23709523Y21595181D02*
X23090476Y21595181D01*
X22709523Y22499943D02*
X22661904Y22547562D01*
X22661904Y22547562D02*
X22566666Y22595181D01*
X22566666Y22595181D02*
X22328571Y22595181D01*
X22328571Y22595181D02*
X22233333Y22547562D01*
X22233333Y22547562D02*
X22185714Y22499943D01*
X22185714Y22499943D02*
X22138095Y22404705D01*
X22138095Y22404705D02*
X22138095Y22309467D01*
X22138095Y22309467D02*
X22185714Y22166610D01*
X22185714Y22166610D02*
X22757142Y21595181D01*
X22757142Y21595181D02*
X22138095Y21595181D01*
X24042857Y18495181D02*
X24376190Y18971372D01*
X24614285Y18495181D02*
X24614285Y19495181D01*
X24614285Y19495181D02*
X24233333Y19495181D01*
X24233333Y19495181D02*
X24138095Y19447562D01*
X24138095Y19447562D02*
X24090476Y19399943D01*
X24090476Y19399943D02*
X24042857Y19304705D01*
X24042857Y19304705D02*
X24042857Y19161848D01*
X24042857Y19161848D02*
X24090476Y19066610D01*
X24090476Y19066610D02*
X24138095Y19018991D01*
X24138095Y19018991D02*
X24233333Y18971372D01*
X24233333Y18971372D02*
X24614285Y18971372D01*
X23661904Y19399943D02*
X23614285Y19447562D01*
X23614285Y19447562D02*
X23519047Y19495181D01*
X23519047Y19495181D02*
X23280952Y19495181D01*
X23280952Y19495181D02*
X23185714Y19447562D01*
X23185714Y19447562D02*
X23138095Y19399943D01*
X23138095Y19399943D02*
X23090476Y19304705D01*
X23090476Y19304705D02*
X23090476Y19209467D01*
X23090476Y19209467D02*
X23138095Y19066610D01*
X23138095Y19066610D02*
X23709523Y18495181D01*
X23709523Y18495181D02*
X23090476Y18495181D01*
X22233333Y19161848D02*
X22233333Y18495181D01*
X22471428Y19542800D02*
X22709523Y18828515D01*
X22709523Y18828515D02*
X22090476Y18828515D01*
X15570858Y5641181D02*
X15904191Y6117372D01*
X16142286Y5641181D02*
X16142286Y6641181D01*
X16142286Y6641181D02*
X15761334Y6641181D01*
X15761334Y6641181D02*
X15666096Y6593562D01*
X15666096Y6593562D02*
X15618477Y6545943D01*
X15618477Y6545943D02*
X15570858Y6450705D01*
X15570858Y6450705D02*
X15570858Y6307848D01*
X15570858Y6307848D02*
X15618477Y6212610D01*
X15618477Y6212610D02*
X15666096Y6164991D01*
X15666096Y6164991D02*
X15761334Y6117372D01*
X15761334Y6117372D02*
X16142286Y6117372D01*
X14618477Y5641181D02*
X15189905Y5641181D01*
X14904191Y5641181D02*
X14904191Y6641181D01*
X14904191Y6641181D02*
X14999429Y6498324D01*
X14999429Y6498324D02*
X15094667Y6403086D01*
X15094667Y6403086D02*
X15189905Y6355467D01*
X14237524Y6545943D02*
X14189905Y6593562D01*
X14189905Y6593562D02*
X14094667Y6641181D01*
X14094667Y6641181D02*
X13856572Y6641181D01*
X13856572Y6641181D02*
X13761334Y6593562D01*
X13761334Y6593562D02*
X13713715Y6545943D01*
X13713715Y6545943D02*
X13666096Y6450705D01*
X13666096Y6450705D02*
X13666096Y6355467D01*
X13666096Y6355467D02*
X13713715Y6212610D01*
X13713715Y6212610D02*
X14285143Y5641181D01*
X14285143Y5641181D02*
X13666096Y5641181D01*
X29642857Y20045181D02*
X29976190Y20521372D01*
X30214285Y20045181D02*
X30214285Y21045181D01*
X30214285Y21045181D02*
X29833333Y21045181D01*
X29833333Y21045181D02*
X29738095Y20997562D01*
X29738095Y20997562D02*
X29690476Y20949943D01*
X29690476Y20949943D02*
X29642857Y20854705D01*
X29642857Y20854705D02*
X29642857Y20711848D01*
X29642857Y20711848D02*
X29690476Y20616610D01*
X29690476Y20616610D02*
X29738095Y20568991D01*
X29738095Y20568991D02*
X29833333Y20521372D01*
X29833333Y20521372D02*
X30214285Y20521372D01*
X29261904Y20949943D02*
X29214285Y20997562D01*
X29214285Y20997562D02*
X29119047Y21045181D01*
X29119047Y21045181D02*
X28880952Y21045181D01*
X28880952Y21045181D02*
X28785714Y20997562D01*
X28785714Y20997562D02*
X28738095Y20949943D01*
X28738095Y20949943D02*
X28690476Y20854705D01*
X28690476Y20854705D02*
X28690476Y20759467D01*
X28690476Y20759467D02*
X28738095Y20616610D01*
X28738095Y20616610D02*
X29309523Y20045181D01*
X29309523Y20045181D02*
X28690476Y20045181D01*
X27833333Y21045181D02*
X28023809Y21045181D01*
X28023809Y21045181D02*
X28119047Y20997562D01*
X28119047Y20997562D02*
X28166666Y20949943D01*
X28166666Y20949943D02*
X28261904Y20807086D01*
X28261904Y20807086D02*
X28309523Y20616610D01*
X28309523Y20616610D02*
X28309523Y20235658D01*
X28309523Y20235658D02*
X28261904Y20140420D01*
X28261904Y20140420D02*
X28214285Y20092800D01*
X28214285Y20092800D02*
X28119047Y20045181D01*
X28119047Y20045181D02*
X27928571Y20045181D01*
X27928571Y20045181D02*
X27833333Y20092800D01*
X27833333Y20092800D02*
X27785714Y20140420D01*
X27785714Y20140420D02*
X27738095Y20235658D01*
X27738095Y20235658D02*
X27738095Y20473753D01*
X27738095Y20473753D02*
X27785714Y20568991D01*
X27785714Y20568991D02*
X27833333Y20616610D01*
X27833333Y20616610D02*
X27928571Y20664229D01*
X27928571Y20664229D02*
X28119047Y20664229D01*
X28119047Y20664229D02*
X28214285Y20616610D01*
X28214285Y20616610D02*
X28261904Y20568991D01*
X28261904Y20568991D02*
X28309523Y20473753D01*
X29642857Y18495181D02*
X29976190Y18971372D01*
X30214285Y18495181D02*
X30214285Y19495181D01*
X30214285Y19495181D02*
X29833333Y19495181D01*
X29833333Y19495181D02*
X29738095Y19447562D01*
X29738095Y19447562D02*
X29690476Y19399943D01*
X29690476Y19399943D02*
X29642857Y19304705D01*
X29642857Y19304705D02*
X29642857Y19161848D01*
X29642857Y19161848D02*
X29690476Y19066610D01*
X29690476Y19066610D02*
X29738095Y19018991D01*
X29738095Y19018991D02*
X29833333Y18971372D01*
X29833333Y18971372D02*
X30214285Y18971372D01*
X29261904Y19399943D02*
X29214285Y19447562D01*
X29214285Y19447562D02*
X29119047Y19495181D01*
X29119047Y19495181D02*
X28880952Y19495181D01*
X28880952Y19495181D02*
X28785714Y19447562D01*
X28785714Y19447562D02*
X28738095Y19399943D01*
X28738095Y19399943D02*
X28690476Y19304705D01*
X28690476Y19304705D02*
X28690476Y19209467D01*
X28690476Y19209467D02*
X28738095Y19066610D01*
X28738095Y19066610D02*
X29309523Y18495181D01*
X29309523Y18495181D02*
X28690476Y18495181D01*
X28357142Y19495181D02*
X27690476Y19495181D01*
X27690476Y19495181D02*
X28119047Y18495181D01*
X18442857Y20045181D02*
X18776190Y20521372D01*
X19014285Y20045181D02*
X19014285Y21045181D01*
X19014285Y21045181D02*
X18633333Y21045181D01*
X18633333Y21045181D02*
X18538095Y20997562D01*
X18538095Y20997562D02*
X18490476Y20949943D01*
X18490476Y20949943D02*
X18442857Y20854705D01*
X18442857Y20854705D02*
X18442857Y20711848D01*
X18442857Y20711848D02*
X18490476Y20616610D01*
X18490476Y20616610D02*
X18538095Y20568991D01*
X18538095Y20568991D02*
X18633333Y20521372D01*
X18633333Y20521372D02*
X19014285Y20521372D01*
X17490476Y20045181D02*
X18061904Y20045181D01*
X17776190Y20045181D02*
X17776190Y21045181D01*
X17776190Y21045181D02*
X17871428Y20902324D01*
X17871428Y20902324D02*
X17966666Y20807086D01*
X17966666Y20807086D02*
X18061904Y20759467D01*
X17157142Y21045181D02*
X16490476Y21045181D01*
X16490476Y21045181D02*
X16919047Y20045181D01*
X6816666Y18495181D02*
X7149999Y18971372D01*
X7388094Y18495181D02*
X7388094Y19495181D01*
X7388094Y19495181D02*
X7007142Y19495181D01*
X7007142Y19495181D02*
X6911904Y19447562D01*
X6911904Y19447562D02*
X6864285Y19399943D01*
X6864285Y19399943D02*
X6816666Y19304705D01*
X6816666Y19304705D02*
X6816666Y19161848D01*
X6816666Y19161848D02*
X6864285Y19066610D01*
X6864285Y19066610D02*
X6911904Y19018991D01*
X6911904Y19018991D02*
X7007142Y18971372D01*
X7007142Y18971372D02*
X7388094Y18971372D01*
X6340475Y18495181D02*
X6149999Y18495181D01*
X6149999Y18495181D02*
X6054761Y18542800D01*
X6054761Y18542800D02*
X6007142Y18590420D01*
X6007142Y18590420D02*
X5911904Y18733277D01*
X5911904Y18733277D02*
X5864285Y18923753D01*
X5864285Y18923753D02*
X5864285Y19304705D01*
X5864285Y19304705D02*
X5911904Y19399943D01*
X5911904Y19399943D02*
X5959523Y19447562D01*
X5959523Y19447562D02*
X6054761Y19495181D01*
X6054761Y19495181D02*
X6245237Y19495181D01*
X6245237Y19495181D02*
X6340475Y19447562D01*
X6340475Y19447562D02*
X6388094Y19399943D01*
X6388094Y19399943D02*
X6435713Y19304705D01*
X6435713Y19304705D02*
X6435713Y19066610D01*
X6435713Y19066610D02*
X6388094Y18971372D01*
X6388094Y18971372D02*
X6340475Y18923753D01*
X6340475Y18923753D02*
X6245237Y18876134D01*
X6245237Y18876134D02*
X6054761Y18876134D01*
X6054761Y18876134D02*
X5959523Y18923753D01*
X5959523Y18923753D02*
X5911904Y18971372D01*
X5911904Y18971372D02*
X5864285Y19066610D01*
X9506667Y25199181D02*
X9840000Y25675372D01*
X10078095Y25199181D02*
X10078095Y26199181D01*
X10078095Y26199181D02*
X9697143Y26199181D01*
X9697143Y26199181D02*
X9601905Y26151562D01*
X9601905Y26151562D02*
X9554286Y26103943D01*
X9554286Y26103943D02*
X9506667Y26008705D01*
X9506667Y26008705D02*
X9506667Y25865848D01*
X9506667Y25865848D02*
X9554286Y25770610D01*
X9554286Y25770610D02*
X9601905Y25722991D01*
X9601905Y25722991D02*
X9697143Y25675372D01*
X9697143Y25675372D02*
X10078095Y25675372D01*
X9173333Y26199181D02*
X8554286Y26199181D01*
X8554286Y26199181D02*
X8887619Y25818229D01*
X8887619Y25818229D02*
X8744762Y25818229D01*
X8744762Y25818229D02*
X8649524Y25770610D01*
X8649524Y25770610D02*
X8601905Y25722991D01*
X8601905Y25722991D02*
X8554286Y25627753D01*
X8554286Y25627753D02*
X8554286Y25389658D01*
X8554286Y25389658D02*
X8601905Y25294420D01*
X8601905Y25294420D02*
X8649524Y25246800D01*
X8649524Y25246800D02*
X8744762Y25199181D01*
X8744762Y25199181D02*
X9030476Y25199181D01*
X9030476Y25199181D02*
X9125714Y25246800D01*
X9125714Y25246800D02*
X9173333Y25294420D01*
X1216666Y21595181D02*
X1549999Y22071372D01*
X1788094Y21595181D02*
X1788094Y22595181D01*
X1788094Y22595181D02*
X1407142Y22595181D01*
X1407142Y22595181D02*
X1311904Y22547562D01*
X1311904Y22547562D02*
X1264285Y22499943D01*
X1264285Y22499943D02*
X1216666Y22404705D01*
X1216666Y22404705D02*
X1216666Y22261848D01*
X1216666Y22261848D02*
X1264285Y22166610D01*
X1264285Y22166610D02*
X1311904Y22118991D01*
X1311904Y22118991D02*
X1407142Y22071372D01*
X1407142Y22071372D02*
X1788094Y22071372D01*
X359523Y22261848D02*
X359523Y21595181D01*
X597618Y22642800D02*
X835713Y21928515D01*
X835713Y21928515D02*
X216666Y21928515D01*
X6816666Y21595181D02*
X7149999Y22071372D01*
X7388094Y21595181D02*
X7388094Y22595181D01*
X7388094Y22595181D02*
X7007142Y22595181D01*
X7007142Y22595181D02*
X6911904Y22547562D01*
X6911904Y22547562D02*
X6864285Y22499943D01*
X6864285Y22499943D02*
X6816666Y22404705D01*
X6816666Y22404705D02*
X6816666Y22261848D01*
X6816666Y22261848D02*
X6864285Y22166610D01*
X6864285Y22166610D02*
X6911904Y22118991D01*
X6911904Y22118991D02*
X7007142Y22071372D01*
X7007142Y22071372D02*
X7388094Y22071372D01*
X6483332Y22595181D02*
X5816666Y22595181D01*
X5816666Y22595181D02*
X6245237Y21595181D01*
X9506667Y28247181D02*
X9840000Y28723372D01*
X10078095Y28247181D02*
X10078095Y29247181D01*
X10078095Y29247181D02*
X9697143Y29247181D01*
X9697143Y29247181D02*
X9601905Y29199562D01*
X9601905Y29199562D02*
X9554286Y29151943D01*
X9554286Y29151943D02*
X9506667Y29056705D01*
X9506667Y29056705D02*
X9506667Y28913848D01*
X9506667Y28913848D02*
X9554286Y28818610D01*
X9554286Y28818610D02*
X9601905Y28770991D01*
X9601905Y28770991D02*
X9697143Y28723372D01*
X9697143Y28723372D02*
X10078095Y28723372D01*
X8554286Y28247181D02*
X9125714Y28247181D01*
X8840000Y28247181D02*
X8840000Y29247181D01*
X8840000Y29247181D02*
X8935238Y29104324D01*
X8935238Y29104324D02*
X9030476Y29009086D01*
X9030476Y29009086D02*
X9125714Y28961467D01*
X1216666Y20045181D02*
X1549999Y20521372D01*
X1788094Y20045181D02*
X1788094Y21045181D01*
X1788094Y21045181D02*
X1407142Y21045181D01*
X1407142Y21045181D02*
X1311904Y20997562D01*
X1311904Y20997562D02*
X1264285Y20949943D01*
X1264285Y20949943D02*
X1216666Y20854705D01*
X1216666Y20854705D02*
X1216666Y20711848D01*
X1216666Y20711848D02*
X1264285Y20616610D01*
X1264285Y20616610D02*
X1311904Y20568991D01*
X1311904Y20568991D02*
X1407142Y20521372D01*
X1407142Y20521372D02*
X1788094Y20521372D01*
X311904Y21045181D02*
X788094Y21045181D01*
X788094Y21045181D02*
X835713Y20568991D01*
X835713Y20568991D02*
X788094Y20616610D01*
X788094Y20616610D02*
X692856Y20664229D01*
X692856Y20664229D02*
X454761Y20664229D01*
X454761Y20664229D02*
X359523Y20616610D01*
X359523Y20616610D02*
X311904Y20568991D01*
X311904Y20568991D02*
X264285Y20473753D01*
X264285Y20473753D02*
X264285Y20235658D01*
X264285Y20235658D02*
X311904Y20140420D01*
X311904Y20140420D02*
X359523Y20092800D01*
X359523Y20092800D02*
X454761Y20045181D01*
X454761Y20045181D02*
X692856Y20045181D01*
X692856Y20045181D02*
X788094Y20092800D01*
X788094Y20092800D02*
X835713Y20140420D01*
X12842857Y21595181D02*
X13176190Y22071372D01*
X13414285Y21595181D02*
X13414285Y22595181D01*
X13414285Y22595181D02*
X13033333Y22595181D01*
X13033333Y22595181D02*
X12938095Y22547562D01*
X12938095Y22547562D02*
X12890476Y22499943D01*
X12890476Y22499943D02*
X12842857Y22404705D01*
X12842857Y22404705D02*
X12842857Y22261848D01*
X12842857Y22261848D02*
X12890476Y22166610D01*
X12890476Y22166610D02*
X12938095Y22118991D01*
X12938095Y22118991D02*
X13033333Y22071372D01*
X13033333Y22071372D02*
X13414285Y22071372D01*
X11890476Y21595181D02*
X12461904Y21595181D01*
X12176190Y21595181D02*
X12176190Y22595181D01*
X12176190Y22595181D02*
X12271428Y22452324D01*
X12271428Y22452324D02*
X12366666Y22357086D01*
X12366666Y22357086D02*
X12461904Y22309467D01*
X11557142Y22595181D02*
X10938095Y22595181D01*
X10938095Y22595181D02*
X11271428Y22214229D01*
X11271428Y22214229D02*
X11128571Y22214229D01*
X11128571Y22214229D02*
X11033333Y22166610D01*
X11033333Y22166610D02*
X10985714Y22118991D01*
X10985714Y22118991D02*
X10938095Y22023753D01*
X10938095Y22023753D02*
X10938095Y21785658D01*
X10938095Y21785658D02*
X10985714Y21690420D01*
X10985714Y21690420D02*
X11033333Y21642800D01*
X11033333Y21642800D02*
X11128571Y21595181D01*
X11128571Y21595181D02*
X11414285Y21595181D01*
X11414285Y21595181D02*
X11509523Y21642800D01*
X11509523Y21642800D02*
X11557142Y21690420D01*
X9506667Y26723181D02*
X9840000Y27199372D01*
X10078095Y26723181D02*
X10078095Y27723181D01*
X10078095Y27723181D02*
X9697143Y27723181D01*
X9697143Y27723181D02*
X9601905Y27675562D01*
X9601905Y27675562D02*
X9554286Y27627943D01*
X9554286Y27627943D02*
X9506667Y27532705D01*
X9506667Y27532705D02*
X9506667Y27389848D01*
X9506667Y27389848D02*
X9554286Y27294610D01*
X9554286Y27294610D02*
X9601905Y27246991D01*
X9601905Y27246991D02*
X9697143Y27199372D01*
X9697143Y27199372D02*
X10078095Y27199372D01*
X9125714Y27627943D02*
X9078095Y27675562D01*
X9078095Y27675562D02*
X8982857Y27723181D01*
X8982857Y27723181D02*
X8744762Y27723181D01*
X8744762Y27723181D02*
X8649524Y27675562D01*
X8649524Y27675562D02*
X8601905Y27627943D01*
X8601905Y27627943D02*
X8554286Y27532705D01*
X8554286Y27532705D02*
X8554286Y27437467D01*
X8554286Y27437467D02*
X8601905Y27294610D01*
X8601905Y27294610D02*
X9173333Y26723181D01*
X9173333Y26723181D02*
X8554286Y26723181D01*
X18442857Y21595181D02*
X18776190Y22071372D01*
X19014285Y21595181D02*
X19014285Y22595181D01*
X19014285Y22595181D02*
X18633333Y22595181D01*
X18633333Y22595181D02*
X18538095Y22547562D01*
X18538095Y22547562D02*
X18490476Y22499943D01*
X18490476Y22499943D02*
X18442857Y22404705D01*
X18442857Y22404705D02*
X18442857Y22261848D01*
X18442857Y22261848D02*
X18490476Y22166610D01*
X18490476Y22166610D02*
X18538095Y22118991D01*
X18538095Y22118991D02*
X18633333Y22071372D01*
X18633333Y22071372D02*
X19014285Y22071372D01*
X17490476Y21595181D02*
X18061904Y21595181D01*
X17776190Y21595181D02*
X17776190Y22595181D01*
X17776190Y22595181D02*
X17871428Y22452324D01*
X17871428Y22452324D02*
X17966666Y22357086D01*
X17966666Y22357086D02*
X18061904Y22309467D01*
X16633333Y22595181D02*
X16823809Y22595181D01*
X16823809Y22595181D02*
X16919047Y22547562D01*
X16919047Y22547562D02*
X16966666Y22499943D01*
X16966666Y22499943D02*
X17061904Y22357086D01*
X17061904Y22357086D02*
X17109523Y22166610D01*
X17109523Y22166610D02*
X17109523Y21785658D01*
X17109523Y21785658D02*
X17061904Y21690420D01*
X17061904Y21690420D02*
X17014285Y21642800D01*
X17014285Y21642800D02*
X16919047Y21595181D01*
X16919047Y21595181D02*
X16728571Y21595181D01*
X16728571Y21595181D02*
X16633333Y21642800D01*
X16633333Y21642800D02*
X16585714Y21690420D01*
X16585714Y21690420D02*
X16538095Y21785658D01*
X16538095Y21785658D02*
X16538095Y22023753D01*
X16538095Y22023753D02*
X16585714Y22118991D01*
X16585714Y22118991D02*
X16633333Y22166610D01*
X16633333Y22166610D02*
X16728571Y22214229D01*
X16728571Y22214229D02*
X16919047Y22214229D01*
X16919047Y22214229D02*
X17014285Y22166610D01*
X17014285Y22166610D02*
X17061904Y22118991D01*
X17061904Y22118991D02*
X17109523Y22023753D01*
X1216666Y18495181D02*
X1549999Y18971372D01*
X1788094Y18495181D02*
X1788094Y19495181D01*
X1788094Y19495181D02*
X1407142Y19495181D01*
X1407142Y19495181D02*
X1311904Y19447562D01*
X1311904Y19447562D02*
X1264285Y19399943D01*
X1264285Y19399943D02*
X1216666Y19304705D01*
X1216666Y19304705D02*
X1216666Y19161848D01*
X1216666Y19161848D02*
X1264285Y19066610D01*
X1264285Y19066610D02*
X1311904Y19018991D01*
X1311904Y19018991D02*
X1407142Y18971372D01*
X1407142Y18971372D02*
X1788094Y18971372D01*
X359523Y19495181D02*
X549999Y19495181D01*
X549999Y19495181D02*
X645237Y19447562D01*
X645237Y19447562D02*
X692856Y19399943D01*
X692856Y19399943D02*
X788094Y19257086D01*
X788094Y19257086D02*
X835713Y19066610D01*
X835713Y19066610D02*
X835713Y18685658D01*
X835713Y18685658D02*
X788094Y18590420D01*
X788094Y18590420D02*
X740475Y18542800D01*
X740475Y18542800D02*
X645237Y18495181D01*
X645237Y18495181D02*
X454761Y18495181D01*
X454761Y18495181D02*
X359523Y18542800D01*
X359523Y18542800D02*
X311904Y18590420D01*
X311904Y18590420D02*
X264285Y18685658D01*
X264285Y18685658D02*
X264285Y18923753D01*
X264285Y18923753D02*
X311904Y19018991D01*
X311904Y19018991D02*
X359523Y19066610D01*
X359523Y19066610D02*
X454761Y19114229D01*
X454761Y19114229D02*
X645237Y19114229D01*
X645237Y19114229D02*
X740475Y19066610D01*
X740475Y19066610D02*
X788094Y19018991D01*
X788094Y19018991D02*
X835713Y18923753D01*
X26742857Y5645181D02*
X27076190Y6121372D01*
X27314285Y5645181D02*
X27314285Y6645181D01*
X27314285Y6645181D02*
X26933333Y6645181D01*
X26933333Y6645181D02*
X26838095Y6597562D01*
X26838095Y6597562D02*
X26790476Y6549943D01*
X26790476Y6549943D02*
X26742857Y6454705D01*
X26742857Y6454705D02*
X26742857Y6311848D01*
X26742857Y6311848D02*
X26790476Y6216610D01*
X26790476Y6216610D02*
X26838095Y6168991D01*
X26838095Y6168991D02*
X26933333Y6121372D01*
X26933333Y6121372D02*
X27314285Y6121372D01*
X26361904Y6549943D02*
X26314285Y6597562D01*
X26314285Y6597562D02*
X26219047Y6645181D01*
X26219047Y6645181D02*
X25980952Y6645181D01*
X25980952Y6645181D02*
X25885714Y6597562D01*
X25885714Y6597562D02*
X25838095Y6549943D01*
X25838095Y6549943D02*
X25790476Y6454705D01*
X25790476Y6454705D02*
X25790476Y6359467D01*
X25790476Y6359467D02*
X25838095Y6216610D01*
X25838095Y6216610D02*
X26409523Y5645181D01*
X26409523Y5645181D02*
X25790476Y5645181D01*
X24838095Y5645181D02*
X25409523Y5645181D01*
X25123809Y5645181D02*
X25123809Y6645181D01*
X25123809Y6645181D02*
X25219047Y6502324D01*
X25219047Y6502324D02*
X25314285Y6407086D01*
X25314285Y6407086D02*
X25409523Y6359467D01*
X6816666Y20045181D02*
X7149999Y20521372D01*
X7388094Y20045181D02*
X7388094Y21045181D01*
X7388094Y21045181D02*
X7007142Y21045181D01*
X7007142Y21045181D02*
X6911904Y20997562D01*
X6911904Y20997562D02*
X6864285Y20949943D01*
X6864285Y20949943D02*
X6816666Y20854705D01*
X6816666Y20854705D02*
X6816666Y20711848D01*
X6816666Y20711848D02*
X6864285Y20616610D01*
X6864285Y20616610D02*
X6911904Y20568991D01*
X6911904Y20568991D02*
X7007142Y20521372D01*
X7007142Y20521372D02*
X7388094Y20521372D01*
X6245237Y20616610D02*
X6340475Y20664229D01*
X6340475Y20664229D02*
X6388094Y20711848D01*
X6388094Y20711848D02*
X6435713Y20807086D01*
X6435713Y20807086D02*
X6435713Y20854705D01*
X6435713Y20854705D02*
X6388094Y20949943D01*
X6388094Y20949943D02*
X6340475Y20997562D01*
X6340475Y20997562D02*
X6245237Y21045181D01*
X6245237Y21045181D02*
X6054761Y21045181D01*
X6054761Y21045181D02*
X5959523Y20997562D01*
X5959523Y20997562D02*
X5911904Y20949943D01*
X5911904Y20949943D02*
X5864285Y20854705D01*
X5864285Y20854705D02*
X5864285Y20807086D01*
X5864285Y20807086D02*
X5911904Y20711848D01*
X5911904Y20711848D02*
X5959523Y20664229D01*
X5959523Y20664229D02*
X6054761Y20616610D01*
X6054761Y20616610D02*
X6245237Y20616610D01*
X6245237Y20616610D02*
X6340475Y20568991D01*
X6340475Y20568991D02*
X6388094Y20521372D01*
X6388094Y20521372D02*
X6435713Y20426134D01*
X6435713Y20426134D02*
X6435713Y20235658D01*
X6435713Y20235658D02*
X6388094Y20140420D01*
X6388094Y20140420D02*
X6340475Y20092800D01*
X6340475Y20092800D02*
X6245237Y20045181D01*
X6245237Y20045181D02*
X6054761Y20045181D01*
X6054761Y20045181D02*
X5959523Y20092800D01*
X5959523Y20092800D02*
X5911904Y20140420D01*
X5911904Y20140420D02*
X5864285Y20235658D01*
X5864285Y20235658D02*
X5864285Y20426134D01*
X5864285Y20426134D02*
X5911904Y20521372D01*
X5911904Y20521372D02*
X5959523Y20568991D01*
X5959523Y20568991D02*
X6054761Y20616610D01*
X12842857Y18495181D02*
X13176190Y18971372D01*
X13414285Y18495181D02*
X13414285Y19495181D01*
X13414285Y19495181D02*
X13033333Y19495181D01*
X13033333Y19495181D02*
X12938095Y19447562D01*
X12938095Y19447562D02*
X12890476Y19399943D01*
X12890476Y19399943D02*
X12842857Y19304705D01*
X12842857Y19304705D02*
X12842857Y19161848D01*
X12842857Y19161848D02*
X12890476Y19066610D01*
X12890476Y19066610D02*
X12938095Y19018991D01*
X12938095Y19018991D02*
X13033333Y18971372D01*
X13033333Y18971372D02*
X13414285Y18971372D01*
X11890476Y18495181D02*
X12461904Y18495181D01*
X12176190Y18495181D02*
X12176190Y19495181D01*
X12176190Y19495181D02*
X12271428Y19352324D01*
X12271428Y19352324D02*
X12366666Y19257086D01*
X12366666Y19257086D02*
X12461904Y19209467D01*
X10985714Y19495181D02*
X11461904Y19495181D01*
X11461904Y19495181D02*
X11509523Y19018991D01*
X11509523Y19018991D02*
X11461904Y19066610D01*
X11461904Y19066610D02*
X11366666Y19114229D01*
X11366666Y19114229D02*
X11128571Y19114229D01*
X11128571Y19114229D02*
X11033333Y19066610D01*
X11033333Y19066610D02*
X10985714Y19018991D01*
X10985714Y19018991D02*
X10938095Y18923753D01*
X10938095Y18923753D02*
X10938095Y18685658D01*
X10938095Y18685658D02*
X10985714Y18590420D01*
X10985714Y18590420D02*
X11033333Y18542800D01*
X11033333Y18542800D02*
X11128571Y18495181D01*
X11128571Y18495181D02*
X11366666Y18495181D01*
X11366666Y18495181D02*
X11461904Y18542800D01*
X11461904Y18542800D02*
X11509523Y18590420D01*
X29642857Y21595181D02*
X29976190Y22071372D01*
X30214285Y21595181D02*
X30214285Y22595181D01*
X30214285Y22595181D02*
X29833333Y22595181D01*
X29833333Y22595181D02*
X29738095Y22547562D01*
X29738095Y22547562D02*
X29690476Y22499943D01*
X29690476Y22499943D02*
X29642857Y22404705D01*
X29642857Y22404705D02*
X29642857Y22261848D01*
X29642857Y22261848D02*
X29690476Y22166610D01*
X29690476Y22166610D02*
X29738095Y22118991D01*
X29738095Y22118991D02*
X29833333Y22071372D01*
X29833333Y22071372D02*
X30214285Y22071372D01*
X29261904Y22499943D02*
X29214285Y22547562D01*
X29214285Y22547562D02*
X29119047Y22595181D01*
X29119047Y22595181D02*
X28880952Y22595181D01*
X28880952Y22595181D02*
X28785714Y22547562D01*
X28785714Y22547562D02*
X28738095Y22499943D01*
X28738095Y22499943D02*
X28690476Y22404705D01*
X28690476Y22404705D02*
X28690476Y22309467D01*
X28690476Y22309467D02*
X28738095Y22166610D01*
X28738095Y22166610D02*
X29309523Y21595181D01*
X29309523Y21595181D02*
X28690476Y21595181D01*
X27785714Y22595181D02*
X28261904Y22595181D01*
X28261904Y22595181D02*
X28309523Y22118991D01*
X28309523Y22118991D02*
X28261904Y22166610D01*
X28261904Y22166610D02*
X28166666Y22214229D01*
X28166666Y22214229D02*
X27928571Y22214229D01*
X27928571Y22214229D02*
X27833333Y22166610D01*
X27833333Y22166610D02*
X27785714Y22118991D01*
X27785714Y22118991D02*
X27738095Y22023753D01*
X27738095Y22023753D02*
X27738095Y21785658D01*
X27738095Y21785658D02*
X27785714Y21690420D01*
X27785714Y21690420D02*
X27833333Y21642800D01*
X27833333Y21642800D02*
X27928571Y21595181D01*
X27928571Y21595181D02*
X28166666Y21595181D01*
X28166666Y21595181D02*
X28261904Y21642800D01*
X28261904Y21642800D02*
X28309523Y21690420D01*
X12842857Y20045181D02*
X13176190Y20521372D01*
X13414285Y20045181D02*
X13414285Y21045181D01*
X13414285Y21045181D02*
X13033333Y21045181D01*
X13033333Y21045181D02*
X12938095Y20997562D01*
X12938095Y20997562D02*
X12890476Y20949943D01*
X12890476Y20949943D02*
X12842857Y20854705D01*
X12842857Y20854705D02*
X12842857Y20711848D01*
X12842857Y20711848D02*
X12890476Y20616610D01*
X12890476Y20616610D02*
X12938095Y20568991D01*
X12938095Y20568991D02*
X13033333Y20521372D01*
X13033333Y20521372D02*
X13414285Y20521372D01*
X11890476Y20045181D02*
X12461904Y20045181D01*
X12176190Y20045181D02*
X12176190Y21045181D01*
X12176190Y21045181D02*
X12271428Y20902324D01*
X12271428Y20902324D02*
X12366666Y20807086D01*
X12366666Y20807086D02*
X12461904Y20759467D01*
X11033333Y20711848D02*
X11033333Y20045181D01*
X11271428Y21092800D02*
X11509523Y20378515D01*
X11509523Y20378515D02*
X10890476Y20378515D01*
X24042857Y20045181D02*
X24376190Y20521372D01*
X24614285Y20045181D02*
X24614285Y21045181D01*
X24614285Y21045181D02*
X24233333Y21045181D01*
X24233333Y21045181D02*
X24138095Y20997562D01*
X24138095Y20997562D02*
X24090476Y20949943D01*
X24090476Y20949943D02*
X24042857Y20854705D01*
X24042857Y20854705D02*
X24042857Y20711848D01*
X24042857Y20711848D02*
X24090476Y20616610D01*
X24090476Y20616610D02*
X24138095Y20568991D01*
X24138095Y20568991D02*
X24233333Y20521372D01*
X24233333Y20521372D02*
X24614285Y20521372D01*
X23661904Y20949943D02*
X23614285Y20997562D01*
X23614285Y20997562D02*
X23519047Y21045181D01*
X23519047Y21045181D02*
X23280952Y21045181D01*
X23280952Y21045181D02*
X23185714Y20997562D01*
X23185714Y20997562D02*
X23138095Y20949943D01*
X23138095Y20949943D02*
X23090476Y20854705D01*
X23090476Y20854705D02*
X23090476Y20759467D01*
X23090476Y20759467D02*
X23138095Y20616610D01*
X23138095Y20616610D02*
X23709523Y20045181D01*
X23709523Y20045181D02*
X23090476Y20045181D01*
X22757142Y21045181D02*
X22138095Y21045181D01*
X22138095Y21045181D02*
X22471428Y20664229D01*
X22471428Y20664229D02*
X22328571Y20664229D01*
X22328571Y20664229D02*
X22233333Y20616610D01*
X22233333Y20616610D02*
X22185714Y20568991D01*
X22185714Y20568991D02*
X22138095Y20473753D01*
X22138095Y20473753D02*
X22138095Y20235658D01*
X22138095Y20235658D02*
X22185714Y20140420D01*
X22185714Y20140420D02*
X22233333Y20092800D01*
X22233333Y20092800D02*
X22328571Y20045181D01*
X22328571Y20045181D02*
X22614285Y20045181D01*
X22614285Y20045181D02*
X22709523Y20092800D01*
X22709523Y20092800D02*
X22757142Y20140420D01*
%TO.C,R20*%
D11*
X22006001Y1826936D02*
X22006001Y3281064D01*
X20186001Y1826936D02*
X20186001Y3281064D01*
%TO.C,R18*%
X17059001Y7099064D02*
X17059001Y6644936D01*
X18529001Y7099064D02*
X18529001Y6644936D01*
%TO.C,R19*%
X21943001Y-2995737D02*
X21943001Y-1548263D01*
X19233001Y-2995737D02*
X19233001Y-1548263D01*
%TO.C,R10*%
X10767001Y-2995737D02*
X10767001Y-1548263D01*
X8057001Y-2995737D02*
X8057001Y-1548263D01*
%TO.C,R11*%
X10830001Y1826936D02*
X10830001Y3281064D01*
X9010001Y1826936D02*
X9010001Y3281064D01*
%TO.C,R22*%
X22027001Y16739737D02*
X22027001Y15292263D01*
X24737001Y16739737D02*
X24737001Y15292263D01*
%TO.C,R24*%
X22647001Y7099064D02*
X22647001Y6644936D01*
X24117001Y7099064D02*
X24117001Y6644936D01*
%TO.C,R12*%
X9639065Y6845000D02*
X9184937Y6845000D01*
X9639065Y5375000D02*
X9184937Y5375000D01*
%TO.C,R26*%
X28060001Y11917064D02*
X28060001Y10462936D01*
X29880001Y11917064D02*
X29880001Y10462936D01*
%TO.C,R27*%
X28235001Y7099064D02*
X28235001Y6644936D01*
X29705001Y7099064D02*
X29705001Y6644936D01*
%TO.C,R17*%
X16884001Y11917064D02*
X16884001Y10462936D01*
X18704001Y11917064D02*
X18704001Y10462936D01*
%TO.C,R9*%
X7353001Y7099064D02*
X7353001Y6644936D01*
X5883001Y7099064D02*
X5883001Y6644936D01*
%TO.C,R3*%
X5829065Y28181000D02*
X5374937Y28181000D01*
X5829065Y26711000D02*
X5374937Y26711000D01*
%TO.C,R4*%
X-324999Y16739737D02*
X-324999Y15292263D01*
X2385001Y16739737D02*
X2385001Y15292263D01*
%TO.C,R7*%
X5263001Y16739737D02*
X5263001Y15292263D01*
X7973001Y16739737D02*
X7973001Y15292263D01*
%TO.C,R1*%
X6833738Y34135000D02*
X5386264Y34135000D01*
X6833738Y31425000D02*
X5386264Y31425000D01*
%TO.C,R5*%
X120001Y11917064D02*
X120001Y10462936D01*
X1940001Y11917064D02*
X1940001Y10462936D01*
%TO.C,R13*%
X10851001Y16739737D02*
X10851001Y15292263D01*
X13561001Y16739737D02*
X13561001Y15292263D01*
%TO.C,R2*%
X6837065Y30642000D02*
X5382937Y30642000D01*
X6837065Y28822000D02*
X5382937Y28822000D01*
%TO.C,R16*%
X16439001Y16739737D02*
X16439001Y15292263D01*
X19149001Y16739737D02*
X19149001Y15292263D01*
%TO.C,R6*%
X1765001Y7099064D02*
X1765001Y6644936D01*
X295001Y7099064D02*
X295001Y6644936D01*
%TO.C,R21*%
X20815065Y6845000D02*
X20360937Y6845000D01*
X20815065Y5375000D02*
X20360937Y5375000D01*
%TO.C,R8*%
X7528001Y11917064D02*
X7528001Y10462936D01*
X5708001Y11917064D02*
X5708001Y10462936D01*
%TO.C,R15*%
X11471001Y7099064D02*
X11471001Y6644936D01*
X12941001Y7099064D02*
X12941001Y6644936D01*
%TO.C,R25*%
X27615001Y16739737D02*
X27615001Y15292263D01*
X30325001Y16739737D02*
X30325001Y15292263D01*
%TO.C,R14*%
X13116001Y11917064D02*
X13116001Y10462936D01*
X11296001Y11917064D02*
X11296001Y10462936D01*
%TO.C,R23*%
X22472001Y11917064D02*
X22472001Y10462936D01*
X24292001Y11917064D02*
X24292001Y10462936D01*
%TD*%
%LPC*%
D12*
%TO.C,J1*%
X11650001Y30225000D03*
D13*
X11650001Y32765000D03*
X14190001Y30225000D03*
X14190001Y32765000D03*
X16730001Y30225000D03*
X16730001Y32765000D03*
X19270001Y30225000D03*
X19270001Y32765000D03*
X21810001Y30225000D03*
X21810001Y32765000D03*
X24350001Y30225000D03*
X24350001Y32765000D03*
%TD*%
D14*
%TO.C,H1*%
X0Y30000000D03*
%TD*%
%TO.C,H4*%
X30000000Y0D03*
%TD*%
D15*
%TO.C,RV15*%
X26176001Y8142000D03*
X26176001Y10682000D03*
X26176001Y13222000D03*
%TD*%
D14*
%TO.C,H3*%
X0Y0D03*
%TD*%
D15*
%TO.C,RV5*%
X6618001Y2818000D03*
X6618001Y278000D03*
X6618001Y-2262000D03*
%TD*%
%TO.C,RV13*%
X20588001Y8142000D03*
X20588001Y10682000D03*
X20588001Y13222000D03*
%TD*%
D14*
%TO.C,H2*%
X30000000Y30000000D03*
%TD*%
D15*
%TO.C,RV6*%
X12206001Y-2272000D03*
X12206001Y268000D03*
X12206001Y2808000D03*
%TD*%
%TO.C,RV9*%
X15000001Y8132000D03*
X15000001Y10672000D03*
X15000001Y13212000D03*
%TD*%
%TO.C,RV11*%
X17794001Y2808000D03*
X17794001Y268000D03*
X17794001Y-2272000D03*
%TD*%
%TO.C,RV2*%
X-1763999Y23626000D03*
X-1763999Y21086000D03*
X-1763999Y18546000D03*
%TD*%
%TO.C,RV1*%
X-1763999Y8142000D03*
X-1763999Y10682000D03*
X-1763999Y13222000D03*
%TD*%
%TO.C,RV14*%
X20588001Y18556000D03*
X20588001Y21096000D03*
X20588001Y23636000D03*
%TD*%
%TO.C,RV3*%
X3824001Y8142000D03*
X3824001Y10682000D03*
X3824001Y13222000D03*
%TD*%
%TO.C,RV10*%
X15000001Y18546000D03*
X15000001Y21086000D03*
X15000001Y23626000D03*
%TD*%
%TO.C,RV12*%
X23382001Y-2272000D03*
X23382001Y268000D03*
X23382001Y2808000D03*
%TD*%
%TO.C,RV18*%
X31764001Y18546000D03*
X31764001Y21086000D03*
X31764001Y23626000D03*
%TD*%
%TO.C,RV16*%
X26176001Y18556000D03*
X26176001Y21096000D03*
X26176001Y23636000D03*
%TD*%
%TO.C,RV8*%
X9412001Y18556000D03*
X9412001Y21096000D03*
X9412001Y23636000D03*
%TD*%
%TO.C,RV4*%
X3824001Y18556000D03*
X3824001Y21096000D03*
X3824001Y23636000D03*
%TD*%
%TO.C,RV17*%
X31764001Y8132000D03*
X31764001Y10672000D03*
X31764001Y13212000D03*
%TD*%
%TO.C,RV7*%
X9412001Y8142000D03*
X9412001Y10682000D03*
X9412001Y13222000D03*
%TD*%
D16*
%TO.C,R20*%
X21096001Y1091500D03*
X21096001Y4016500D03*
%TD*%
D17*
%TO.C,R18*%
X17794001Y7784500D03*
X17794001Y5959500D03*
%TD*%
D18*
%TO.C,R19*%
X20588001Y-3734500D03*
X20588001Y-809500D03*
%TD*%
%TO.C,R10*%
X9412001Y-3734500D03*
X9412001Y-809500D03*
%TD*%
D16*
%TO.C,R11*%
X9920001Y1091500D03*
X9920001Y4016500D03*
%TD*%
D19*
%TO.C,R22*%
X23382001Y17478500D03*
X23382001Y14553500D03*
%TD*%
D17*
%TO.C,R24*%
X23382001Y7784500D03*
X23382001Y5959500D03*
%TD*%
D20*
%TO.C,R12*%
X10324501Y6110000D03*
X8499501Y6110000D03*
%TD*%
D21*
%TO.C,R26*%
X28970001Y12652500D03*
X28970001Y9727500D03*
%TD*%
D17*
%TO.C,R27*%
X28970001Y7784500D03*
X28970001Y5959500D03*
%TD*%
D21*
%TO.C,R17*%
X17794001Y12652500D03*
X17794001Y9727500D03*
%TD*%
D17*
%TO.C,R9*%
X6618001Y5959500D03*
X6618001Y7784500D03*
%TD*%
D20*
%TO.C,R3*%
X6514501Y27446000D03*
X4689501Y27446000D03*
%TD*%
D19*
%TO.C,R4*%
X1030001Y17478500D03*
X1030001Y14553500D03*
%TD*%
%TO.C,R7*%
X6618001Y17478500D03*
X6618001Y14553500D03*
%TD*%
D22*
%TO.C,R1*%
X7572501Y32780000D03*
X4647501Y32780000D03*
%TD*%
D21*
%TO.C,R5*%
X1030001Y12652500D03*
X1030001Y9727500D03*
%TD*%
D19*
%TO.C,R13*%
X12206001Y17478500D03*
X12206001Y14553500D03*
%TD*%
D23*
%TO.C,R2*%
X7572501Y29732000D03*
X4647501Y29732000D03*
%TD*%
D19*
%TO.C,R16*%
X17794001Y17478500D03*
X17794001Y14553500D03*
%TD*%
D17*
%TO.C,R6*%
X1030001Y5959500D03*
X1030001Y7784500D03*
%TD*%
D20*
%TO.C,R21*%
X21500501Y6110000D03*
X19675501Y6110000D03*
%TD*%
D21*
%TO.C,R8*%
X6618001Y9727500D03*
X6618001Y12652500D03*
%TD*%
D17*
%TO.C,R15*%
X12206001Y7784500D03*
X12206001Y5959500D03*
%TD*%
D19*
%TO.C,R25*%
X28970001Y17478500D03*
X28970001Y14553500D03*
%TD*%
D21*
%TO.C,R14*%
X12206001Y9727500D03*
X12206001Y12652500D03*
%TD*%
%TO.C,R23*%
X23382001Y12652500D03*
X23382001Y9727500D03*
%TD*%
%LPD*%
M02*
